<?xml version="1.0" encoding="UTF-8" standalone="no"?>
<!-- Created with Inkscape (http://www.inkscape.org/) -->

<svg
   width="20.766312mm"
   height="13.655191mm"
   viewBox="0 0 20.766312 13.655191"
   version="1.1"
   id="svg1"
   sodipodi:docname="druid-elements.svg"
   xmlns:inkscape="http://www.inkscape.org/namespaces/inkscape"
   xmlns:sodipodi="http://sodipodi.sourceforge.net/DTD/sodipodi-0.dtd"
   xmlns="http://www.w3.org/2000/svg"
   xmlns:svg="http://www.w3.org/2000/svg">
  <sodipodi:namedview
     id="namedview1"
     pagecolor="#ffffff"
     bordercolor="#000000"
     borderopacity="0.25"
     inkscape:showpageshadow="2"
     inkscape:pageopacity="0.0"
     inkscape:pagecheckerboard="0"
     inkscape:deskcolor="#d1d1d1"
     inkscape:document-units="mm"
     inkscape:zoom="1.6390042"
     inkscape:cx="113.48354"
     inkscape:cy="646.12403"
     inkscape:window-width="2400"
     inkscape:window-height="1566"
     inkscape:window-x="2869"
     inkscape:window-y="483"
     inkscape:window-maximized="1"
     inkscape:current-layer="layer1" />
  <defs
     id="defs1" />
  <g
     inkscape:label="Layer 1"
     inkscape:groupmode="layer"
     id="layer1"
     transform="translate(-82.15774,-116.51918)">
    <path
       style="fill:#000000;stroke-width:0.264583"
       id="path20"
       d="m 38.1607,107.73633 c 0.235805,0.0338 0.470694,0.0748 0.707414,0.10139 0.262229,0.0295 1.872496,0.16182 2.057641,0.17818 1.438701,0.12715 2.877595,0.24965 4.316841,0.37081 2.145006,0.17008 4.287329,0.37128 6.433399,0.52739 0.539705,0.0393 1.078778,0.0897 1.619324,0.11489 0.640736,0.0298 1.282428,0.0333 1.923643,0.0499 2.089748,-0.0273 4.182647,-0.004 6.27131,-0.0932 0.757277,-0.0322 1.512861,-0.097 2.269834,-0.1356 1.497031,-0.0764 3.361015,-0.13316 4.841724,-0.18379 2.52671,0.0707 5.053822,-0.0541 7.580537,-0.0163 1.43781,0.0215 2.873724,0.1185 4.31142,0.14657 0.645528,0.0126 1.29128,0.008 1.936919,0.0113 0.59214,-1.1e-4 1.184349,0.009 1.776421,-2.7e-4 0.581255,-0.009 1.161933,-0.0426 1.743167,-0.0525 5.778704,-0.0986 -2.360194,0.0785 3.219606,0.006 3.073456,-0.0401 0.07048,-0.0932 3.039899,-0.011 1.319366,0.0113 2.63371,0.15757 3.951102,0.20525 0.407498,0.0147 0.815565,0.003 1.223248,0.0111 4.916881,0.0997 -2.465229,-0.0166 2.329598,0.0547 0.361743,0.002 0.723593,0.0153 1.085213,0.006 0.3486,-0.009 0.69583,-0.0497 1.04436,-0.061 0.31339,-0.0101 0.62717,0.004 0.94064,-0.003 0.92855,-0.02 1.85871,-0.0667 2.78636,-0.11139 0.31392,-0.0194 0.62859,-0.0289 0.94175,-0.0581 0.32915,-0.0306 0.65485,-0.0937 0.98427,-0.12124 1.084,-0.0907 2.18405,-0.0618 3.27107,-0.0832 0.62065,-0.008 1.21388,-0.20929 1.82423,-0.28763 0.50096,-0.0643 1.01984,-0.0694 1.52416,-0.0973 0.58749,-0.002 1.1629,-0.0799 1.73508,-0.20431 0.144,-0.0222 0.2977,-0.0771 0.44541,-0.0426 0.0319,0.007 0.1221,0.045 0.0897,0.04 -1.10282,-0.16754 -2.20295,-0.35229 -3.30443,-0.52843 0.0325,0.007 0.0691,0.004 0.0975,0.0211 0.30751,0.18594 0.38315,1.08869 0.43136,1.39171 0.16911,1.4235 0.12145,2.86382 0.0576,4.29266 -0.15016,2.17127 -0.29562,4.34336 -0.49102,6.51109 -0.2067,2.06478 -0.31959,4.13754 -0.51808,6.2031 -0.15199,1.53703 -0.25867,3.0772 -0.41726,4.61358 -0.15176,1.30228 -0.25718,2.60551 -0.32413,3.9147 -0.008,0.92624 -0.0228,1.85122 -0.0729,2.77628 -0.0145,0.63522 -0.089,1.26827 -0.16233,1.89914 -0.0473,0.35745 -0.0271,0.55556 -0.22663,0.85682 -0.11016,0.11139 -0.20643,0.20468 -0.34467,0.27814 -0.14125,0.0708 -0.28394,0.13291 -0.4361,0.17651 -0.0703,0.0202 -0.28216,0.0776 -0.21219,0.0562 1.07152,-0.32734 2.14463,-0.64941 3.21695,-0.97412 -1.30356,0.33759 -2.6618,0.37167 -3.99951,0.4455 -1.19484,0.12463 -2.39111,0.015 -3.5865,0.0124 -0.62219,-0.001 -1.24395,0.0339 -1.86607,0.0429 -1.84375,0.006 -3.67957,-0.17735 -5.522237,-0.18882 -2.462758,-0.0817 -4.927478,-0.0268 -7.391133,-0.0286 -3.1085,-0.10757 -6.216856,-0.1812 -9.327221,-0.18848 -3.050506,-0.01 -6.099598,0.0984 -9.148334,0.18771 -2.78656,0.0695 -5.569781,0.22016 -8.3547,0.33291 -2.733852,0.0794 -5.467226,0.15856 -8.199874,0.27267 -2.442998,0.12654 -4.887714,0.1938 -7.333578,0.22373 -2.043615,0.0566 -4.087926,0.0811 -6.131906,0.12425 -1.416458,0.0191 -2.833873,0.0524 -4.249666,-0.008 -0.720273,-0.0402 -1.440247,-0.085 -2.159376,-0.14223 -0.149831,0.007 -0.298561,-0.0337 -0.446934,-0.0386 0.05123,0.26172 0.116104,0.0124 0.177181,-0.0937 0.290893,-0.29271 0.463875,-0.62794 0.60407,-1.01224 0.237254,-0.77324 0.325604,-1.5833 0.417859,-2.38401 0.137575,-1.12004 0.286562,-2.23755 0.334587,-3.36549 0.08792,-1.70205 0.03655,-3.40264 -0.0736,-5.10173 -0.119796,-1.75767 -0.248502,-3.5149 -0.339381,-5.27435 -0.03664,-1.76009 -0.02455,-3.52053 -0.04846,-5.28086 -0.0131,-1.39856 0.06487,-2.79654 0.05136,-4.19474 -0.111136,-1.21657 -0.1,-2.43991 -0.104386,-3.66029 0.03256,-0.79744 -0.01672,-1.59621 0.04009,-2.39267 0.03864,-0.1699 0.0016,-0.44085 0.119332,-0.58668 0.02109,-0.0262 0.08668,0.0333 0.09067,0.0362 0.0704,-0.0298 0.149701,-0.13133 0.23128,-0.13297 0.0266,-5.3e-4 0.04523,0.0356 0.07182,0.0348 0.0057,-1.8e-4 0.188394,-0.0777 0.194945,-0.0804 0.02643,-0.0156 0.157231,-0.0954 0.190317,-0.10444 0.227156,-0.062 0.577729,-0.0294 0.810763,-0.0444 0.62752,-0.10109 1.331097,0.10476 1.948482,-0.007 0.08225,-0.0148 0.158445,-0.0533 0.237667,-0.0799 -0.113607,-0.0935 -0.227214,-0.18692 -0.340823,-0.28039 0,0 -1.77214,-0.62543 -1.77214,-0.62543 v 0 c -0.288689,-0.0599 -0.577379,-0.11985 -0.866066,-0.17977 -0.865452,-0.0467 -1.730343,-0.13249 -2.598197,-0.0788 -0.40911,0.0137 -0.781397,0.0296 -1.137674,0.24636 -0.236289,0.11259 -0.406953,0.29119 -0.582729,0.48346 -0.200716,0.44102 -0.272971,0.89768 -0.282771,1.38273 -0.02522,0.89045 -0.05454,1.78033 -0.07022,2.67094 -0.04078,1.25001 0.03594,2.49888 -0.01146,3.7485 0.02897,1.50799 -2.31e-4,3.01468 0.03631,4.52252 0.03169,1.94533 0.0861,3.89087 0.185148,5.83399 0.1212,1.75552 0.258294,3.50991 0.367951,5.26624 0.108053,1.68642 0.156223,3.37909 0.02196,5.066 -0.104815,1.12091 -0.230296,2.23909 -0.378725,3.3551 -0.112244,0.7772 -0.208764,1.56948 -0.508148,2.30184 -0.164907,0.33927 -0.38027,0.64486 -0.543467,0.98417 -0.1,0.27614 -0.112562,0.5257 0.06238,0.7782 0.170572,0.0321 0.350684,0.01 0.522457,0.0307 0.751012,0.0154 1.500233,0.0758 2.250956,0.0999 1.430234,0.0465 2.86022,0.0767 4.29093,0.0111 2.020798,-0.0449 4.04195,-0.0987 6.063351,-0.0922 2.462681,-0.0322 4.92393,-0.10801 7.38355,-0.23792 2.746753,-0.11178 5.493935,-0.20693 8.241479,-0.29668 2.771828,-0.0874 5.541701,-0.22621 8.313568,-0.31308 3.073138,-0.10537 6.146088,-0.23717 9.221621,-0.24015 3.080996,0.008 6.159251,0.11502 9.237885,0.22938 2.445305,0.0758 4.886952,0.0559 7.332755,0.0229 1.82931,0.11851 3.663391,0.22791 5.496782,0.22356 0.35999,-0.007 1.52621,-0.0231 1.89209,-0.0483 2.98446,-0.20509 -0.89329,-0.004 1.86384,-0.18126 0.28941,-0.0186 0.57965,-0.0206 0.86943,-0.0322 0.30244,-0.0121 0.60481,-0.0259 0.90722,-0.0388 1.32094,-0.0697 2.65638,-0.10353 3.95888,-0.34705 1.26361,-0.37385 2.52912,-0.74132 3.79083,-1.12154 0.17814,-0.0537 0.3555,-0.14731 0.50974,-0.25137 0.0812,-0.0548 0.0914,-0.0696 0.15417,-0.13151 0.12013,-0.11329 0.23723,-0.21866 0.29408,-0.3785 0.11081,-0.30489 0.13078,-0.63784 0.1676,-0.95784 0.0529,-0.59798 0.0917,-1.19742 0.1576,-1.79404 0.026,-0.90019 0.0156,-1.80074 0.0496,-2.70075 0.0345,-1.23856 0.14093,-2.47512 0.31887,-3.70161 0.15326,-1.42696 0.30184,-2.85471 0.41818,-4.2852 0.15153,-1.90274 0.28244,-3.80693 0.4352,-5.70958 0.15805,-2.12282 0.30317,-4.24614 0.40675,-6.37247 0.0677,-1.45243 0.1167,-2.90724 -0.0579,-4.35506 -0.068,-0.59571 -0.10319,-1.24945 -0.42429,-1.77288 -2.15201,-0.3717 -2.60976,-0.86259 -4.04288,-0.48917 -0.54815,0.11097 -1.10498,0.14292 -1.66262,0.17345 -0.49731,0.0337 -1.01095,0.10546 -1.50912,0.0993 -0.53362,-0.007 -1.05583,-0.16111 -1.58957,-0.17004 -0.78012,0.009 -1.55934,0.0266 -2.33887,0.0603 -0.30569,0.0132 -0.61089,0.0399 -0.91682,0.0451 -0.30968,0.005 -0.61941,-0.0203 -0.92906,-0.0139 -0.31458,0.007 -0.6283,0.0353 -0.94245,0.053 -0.497,0.022 -1.36235,0.0648 -1.85936,0.0689 -0.29274,0.002 -0.58541,-0.0122 -0.878157,-0.0128 -0.30915,-8e-4 -0.61836,0.0168 -0.927409,0.009 -0.318831,-0.008 -0.636294,-0.048 -0.955096,-0.0573 -0.356957,-0.0104 -0.714214,-10e-4 -1.071322,-0.002 -0.612693,-0.01 -1.709851,-0.0189 -2.315763,-0.0613 -0.37919,-0.0265 -0.755232,-0.0887 -1.134192,-0.11834 -1.304221,-0.10202 -2.615244,-0.1211 -3.921807,-0.17299 -0.495091,-0.0131 -0.99018,-0.0261 -1.485271,-0.0392 -0.472273,-0.0313 -0.943742,-0.0791 -1.416822,-0.094 -0.678397,-0.0213 -2.537214,0.0192 -3.198492,0.0132 -0.552334,-0.005 -1.104358,-0.0279 -1.656525,-0.0423 -0.564774,-0.0148 -1.129533,-0.0301 -1.694299,-0.0452 -0.609655,-0.0239 -1.219105,-0.0538 -1.828967,-0.0717 -1.416081,-0.0417 -2.83346,-0.0341 -4.249229,-0.0853 -2.424451,-0.0877 -4.84678,-0.31436 -7.275878,-0.21778 -0.8158,-0.0129 -1.631497,-0.0384 -2.447401,-0.0386 -0.719695,-2.1e-4 -1.439127,0.0286 -2.158772,0.0373 -0.703072,0.009 -1.406316,0.002 -2.109319,0.0146 -1.600367,0.0295 -2.468237,0.1024 -4.055597,0.0919 -0.625943,-0.004 -1.251381,-0.0365 -1.877071,-0.0547 -1.212257,-0.0433 -2.184929,-0.0682 -3.387267,-0.14785 -1.539332,-0.10199 -3.073834,-0.26325 -4.610909,-0.38992 -0.500666,-0.0413 -1.002369,-0.0687 -1.503553,-0.10313 -1.394738,-0.10377 -2.78823,-0.21769 -4.180756,-0.34825 -0.18873,-0.0177 -1.801442,-0.18441 -2.068195,-0.19677 -0.23382,-0.0109 -0.468106,0.006 -0.702161,0.009 z"
       inkscape:export-filename="button.svg"
       inkscape:export-xdpi="96"
       inkscape:export-ydpi="96" />
    <path
       style="fill:#000000;stroke-width:0.264583"
       id="path65"
       d="m 85.675011,118.5272 c -0.02135,0.0475 -0.03457,0.0996 -0.06408,0.14254 -0.0409,0.0595 -0.102623,0.10247 -0.144721,0.16112 -0.0936,0.1304 -0.322519,0.53864 -0.398278,0.65913 -0.905039,1.43939 0.487752,-0.84539 -0.621278,0.98779 -0.314497,0.55605 -0.675437,1.0821 -1.04861,1.59965 -0.105934,0.14691 -0.483905,0.67055 -0.612823,0.82629 -0.07347,0.0887 -0.157154,0.16852 -0.23573,0.25277 -0.122161,0.0969 -0.194488,0.24052 -0.306565,0.34642 -0.15304,0.1446 -0.05424,0.008 -0.04905,0.009 0.29554,0.0361 0.588799,0.0889 0.8832,0.13334 0,0 0.824178,0.8395 0.824178,0.8395 v 0 c 0.305514,0.0438 0.607941,0.12655 0.916543,0.13138 0.05391,8e-4 0.08175,-0.0717 0.113498,-0.11526 0.04183,-0.0574 0.06822,-0.12472 0.105402,-0.18526 0.102018,-0.16613 0.224473,-0.31931 0.314185,-0.4933 0.562271,-0.9886 1.207124,-1.92898 1.782334,-2.91029 0.459928,-0.74899 0.228092,-0.36628 0.682172,-1.12667 0.132231,-0.22142 0.303607,-0.48979 0.408025,-0.73026 0.04982,-0.11474 0.08071,-0.23687 0.125891,-0.35352 0.02722,-0.0703 0.06078,-0.13793 0.09117,-0.2069 z" />
    <path
       style="fill:#000000;stroke-width:0.264583"
       id="path66"
       d="m 82.486274,123.9242 c 0.04305,0.0632 0.08809,0.12504 0.129159,0.18952 0.06414,0.10071 0.119174,0.20718 0.186354,0.30588 0.363881,0.53458 0.808593,1.00656 1.256001,1.47032 0.333494,0.34948 0.692351,0.67731 1.061138,0.98934 0.101311,0.0857 0.210867,0.16137 0.3122,0.24706 0.210844,0.1783 0.425897,0.38796 0.6261,0.57814 0.262191,0.23296 0.213251,0.18093 0.461425,0.43664 0.05986,0.0617 0.111649,0.1316 0.176683,0.18779 0.0355,0.0307 0.08494,0.0414 0.121965,0.0702 0.187746,0.14607 0.03817,0.11842 0.236009,0.1198 0.545586,0.10365 1.091173,0.20729 1.636763,0.31094 0,0 -0.370848,-1.12685 -0.370848,-1.12685 v 0 c 0.521737,0.0928 1.043474,0.18554 1.565211,0.2783 -0.05155,-0.20189 0.0117,-0.0481 -0.136369,-0.2105 -0.06284,-0.0689 -0.112276,-0.14945 -0.176043,-0.21754 -0.22457,-0.23976 -0.513294,-0.43958 -0.701585,-0.71552 -0.102047,-0.11069 -0.529188,-0.57504 -0.620207,-0.66924 -0.479505,-0.49625 -1.007774,-0.94128 -1.525384,-1.39667 -0.415504,-0.38532 -0.810511,-0.77332 -1.167117,-1.21408 -0.05846,-0.0723 -0.123531,-0.13957 -0.175739,-0.21646 -0.04159,-0.0613 -0.06957,-0.13072 -0.104357,-0.19608 z" />
    <path
       style="fill:#000000;stroke-width:0.264583"
       id="path67"
       d="m 83.805383,124.21267 c 0.809543,0.15934 1.661245,0.0773 2.480464,0.20911 0.640381,0.10303 0.121235,0.0447 0.794898,0.13159 0.466511,0.0602 0.434597,0.0483 0.927933,0.0728 0.173549,0.005 0.34734,0.005 0.520648,0.0153 0.561305,0.034 1.119322,0.11645 1.679725,0.16177 1.549022,0.12529 -0.379679,-0.053 1.110864,0.0889 0.314193,0.0507 0.633698,0.0248 0.949047,0.0561 0.130715,0.013 0.257868,0.0544 0.388906,0.0636 0.15626,0.0109 0.313682,-0.0148 0.469918,-0.003 0.243883,0.0176 0.498904,0.0968 0.733396,0.15911 0.133006,0.0516 0.39551,0.16226 0.544142,0.18792 0.315169,0.0544 0.653701,0.0158 0.966476,0.0157 0.194831,-3e-5 0.389413,0.0145 0.58421,0.0181 0.128302,-10e-4 0.340247,0.002 0.469996,-0.0189 0.04755,-0.008 0.09116,-0.0319 0.138242,-0.0421 0.08254,-0.0179 0.167412,-0.0237 0.24987,-0.0419 0.06876,-0.0152 0.133672,-0.0463 0.203046,-0.0584 0.106273,-0.0186 0.214617,-0.0221 0.321924,-0.0332 0.04273,-0.0363 0.07607,-0.0882 0.128204,-0.10885 0.08788,-0.0347 0.185653,-0.0353 0.278667,-0.052 0.07916,-0.0142 0.157617,-0.0347 0.237826,-0.0404 0.210206,-0.015 0.397388,0.0242 0.607422,-0.0107 0.07128,-0.0118 0.136258,-0.0481 0.204388,-0.0722 0.384223,-0.0185 0.764302,-0.0799 1.148258,-0.0988 0.207227,-0.0195 0.411377,-0.0462 0.619737,-0.0522 0.11536,-0.0125 0.25408,0.0614 0.36814,0.0275 0.21581,-0.1053 0.1202,-0.0769 0.2776,-0.11157 0,0 1.71457,-1.60456 1.71457,-1.60456 v 0 c -0.0493,-0.10705 -0.0328,-0.0395 1.5e-4,-0.20849 -0.0168,-0.0547 -0.31247,-0.16419 -0.35911,-0.18948 -0.27146,-0.13781 -0.57385,-0.21742 -0.87876,-0.22729 -0.41333,2.6e-4 -0.82732,-0.004 -1.23685,0.0635 -0.11129,-0.009 -0.22224,-0.0261 -0.33385,-0.0256 -0.189931,7.9e-4 -0.377135,0.0539 -0.567058,0.0558 -0.433877,0.004 -0.870228,-0.065 -1.297593,-0.12652 -0.847209,0.015 -1.697405,-0.0734 -2.543276,0.0258 -0.185332,0.0101 -0.709014,0.0425 -0.890381,0.0365 -0.06525,-0.002 -0.127688,-0.0299 -0.192818,-0.0344 -0.663487,-0.0463 -1.331296,-0.003 -1.9925,0.0518 -0.224546,0.0196 -0.449286,0.0371 -0.673637,0.0588 -0.181623,0.0176 -0.36195,0.0505 -0.544219,0.0591 -0.156564,0.007 -0.313468,-0.0172 -0.47009,-0.0111 -0.18396,0.007 -0.36599,0.0439 -0.549963,0.0508 -0.124656,0.005 -0.784958,-0.0288 -0.90705,-0.0345 -0.551172,-0.0276 -1.098965,-0.082 -1.649709,-0.11651 -0.12823,-0.008 -0.950627,-0.0506 -1.076603,-0.0621 -0.182091,-0.0166 -0.363003,-0.0442 -0.544504,-0.0664 -0.423667,-0.0526 -0.847868,-0.10853 -1.273178,-0.1467 -0.705083,-0.0633 -2.268241,-0.18062 0.95862,0.0581 z" />
    <path
       style="fill:#000000;stroke-width:0.264583"
       id="path68"
       d="m 85.564672,122.5009 c 0.885492,-0.10093 0.789829,-0.6682 1.319152,-1.14638 0.797533,-0.72049 1.653772,-1.37341 2.467237,-2.07585 0.383338,-0.11733 0.637143,-0.46366 0.994383,-0.62291 0.09778,-0.0436 0.219678,0.004 0.319175,-0.0357 0.107685,-0.0427 0.185481,-0.13912 0.282101,-0.20306 0.166378,-0.1101 0.197615,-0.12023 0.347226,-0.19051 0.09058,0.0897 0.04689,0.0223 -0.08497,0.22544 0,0 -2.12838,-1.93274 -2.12838,-1.93274 v 0 c -0.235149,0.23563 -0.126878,0.13367 -0.321143,0.30975 -0.22918,0.1722 -0.108834,0.0772 -0.358998,0.28747 -0.09649,0.0745 -0.210378,0.12815 -0.295873,0.21509 -0.154567,0.15718 -0.267059,0.35193 -0.418893,0.51176 -0.299337,0.31509 -0.696725,0.53002 -0.937403,0.90622 -0.190712,0.16063 -0.787649,0.6073 -0.572132,0.48189 0.286538,-0.16673 0.695949,-0.28869 0.787616,-0.60728 0.08724,-0.30321 -0.514077,0.36597 -0.770913,0.54923 -0.404527,0.28865 -0.864357,0.54827 -1.16694,0.96061 -0.100639,0.13714 -0.157181,0.30172 -0.23577,0.45259 z" />
    <path
       style="fill:#000000;stroke-width:0.264583"
       id="path69"
       d="m 86.05876,128.25845 c 0.580536,0.56191 1.155166,1.13084 1.749436,1.67834 0.508397,0.35819 0.196572,0.26588 0.975347,0.0225 0,0 1.097753,-0.97699 1.097753,-0.97699 v 0 c 0.29305,-0.70613 0.375052,-0.42191 0.02035,-0.8872 -0.567958,-0.57193 -1.171046,-1.12568 -1.640626,-1.78379 z" />
  </g>
</svg>
