<?xml version="1.0" encoding="UTF-8" standalone="no"?>
<!-- Created with Inkscape (http://www.inkscape.org/) -->

<svg
   width="84.746506mm"
   height="37.232113mm"
   viewBox="0 0 84.746506 37.232113"
   version="1.1"
   id="svg1"
   xmlns:inkscape="http://www.inkscape.org/namespaces/inkscape"
   xmlns:sodipodi="http://sodipodi.sourceforge.net/DTD/sodipodi-0.dtd"
   xmlns="http://www.w3.org/2000/svg"
   xmlns:svg="http://www.w3.org/2000/svg">
  <sodipodi:namedview
     id="namedview1"
     pagecolor="#ffffff"
     bordercolor="#000000"
     borderopacity="0.25"
     inkscape:showpageshadow="2"
     inkscape:pageopacity="0.0"
     inkscape:pagecheckerboard="0"
     inkscape:deskcolor="#d1d1d1"
     inkscape:document-units="mm" />
  <defs
     id="defs1" />
  <g
     inkscape:label="Layer 1"
     inkscape:groupmode="layer"
     id="layer1"
     transform="translate(-32.363396,-105.23143)">
    <path
       style="fill:#000000;stroke-width:0.264583"
       id="path20"
       d="m 38.1607,107.73633 c 0.235805,0.0338 0.470694,0.0748 0.707414,0.10139 0.262229,0.0295 1.872496,0.16182 2.057641,0.17818 1.438701,0.12715 2.877595,0.24965 4.316841,0.37081 2.145006,0.17008 4.287329,0.37128 6.433399,0.52739 0.539705,0.0393 1.078778,0.0897 1.619324,0.11489 0.640736,0.0298 1.282428,0.0333 1.923643,0.0499 2.089748,-0.0273 4.182647,-0.004 6.27131,-0.0932 0.757277,-0.0322 1.512861,-0.097 2.269834,-0.1356 1.497031,-0.0764 3.361015,-0.13316 4.841724,-0.18379 2.52671,0.0707 5.053822,-0.0541 7.580537,-0.0163 1.43781,0.0215 2.873724,0.1185 4.31142,0.14657 0.645528,0.0126 1.29128,0.008 1.936919,0.0113 0.59214,-1.1e-4 1.184349,0.009 1.776421,-2.7e-4 0.581255,-0.009 1.161933,-0.0426 1.743167,-0.0525 5.778704,-0.0986 -2.360194,0.0785 3.219606,0.006 3.073456,-0.0401 0.07048,-0.0932 3.039899,-0.011 1.319366,0.0113 2.63371,0.15757 3.951102,0.20525 0.407498,0.0147 0.815565,0.003 1.223248,0.0111 4.916881,0.0997 -2.465229,-0.0166 2.329598,0.0547 0.361743,0.002 0.723593,0.0153 1.085213,0.006 0.3486,-0.009 0.69583,-0.0497 1.04436,-0.061 0.31339,-0.0101 0.62717,0.004 0.94064,-0.003 0.92855,-0.02 1.85871,-0.0667 2.78636,-0.11139 0.31392,-0.0194 0.62859,-0.0289 0.94175,-0.0581 0.32915,-0.0306 0.65485,-0.0937 0.98427,-0.12124 1.084,-0.0907 2.18405,-0.0618 3.27107,-0.0832 0.62065,-0.008 1.21388,-0.20929 1.82423,-0.28763 0.50096,-0.0643 1.01984,-0.0694 1.52416,-0.0973 0.58749,-0.002 1.1629,-0.0799 1.73508,-0.20431 0.144,-0.0222 0.2977,-0.0771 0.44541,-0.0426 0.0319,0.007 0.1221,0.045 0.0897,0.04 -1.10282,-0.16754 -2.20295,-0.35229 -3.30443,-0.52843 0.0325,0.007 0.0691,0.004 0.0975,0.0211 0.30751,0.18594 0.38315,1.08869 0.43136,1.39171 0.16911,1.4235 0.12145,2.86382 0.0576,4.29266 -0.15016,2.17127 -0.29562,4.34336 -0.49102,6.51109 -0.2067,2.06478 -0.31959,4.13754 -0.51808,6.2031 -0.15199,1.53703 -0.25867,3.0772 -0.41726,4.61358 -0.15176,1.30228 -0.25718,2.60551 -0.32413,3.9147 -0.008,0.92624 -0.0228,1.85122 -0.0729,2.77628 -0.0145,0.63522 -0.089,1.26827 -0.16233,1.89914 -0.0473,0.35745 -0.0271,0.55556 -0.22663,0.85682 -0.11016,0.11139 -0.20643,0.20468 -0.34467,0.27814 -0.14125,0.0708 -0.28394,0.13291 -0.4361,0.17651 -0.0703,0.0202 -0.28216,0.0776 -0.21219,0.0562 1.07152,-0.32734 2.14463,-0.64941 3.21695,-0.97412 -1.30356,0.33759 -2.6618,0.37167 -3.99951,0.4455 -1.19484,0.12463 -2.39111,0.015 -3.5865,0.0124 -0.62219,-0.001 -1.24395,0.0339 -1.86607,0.0429 -1.84375,0.006 -3.67957,-0.17735 -5.522237,-0.18882 -2.462758,-0.0817 -4.927478,-0.0268 -7.391133,-0.0286 -3.1085,-0.10757 -6.216856,-0.1812 -9.327221,-0.18848 -3.050506,-0.01 -6.099598,0.0984 -9.148334,0.18771 -2.78656,0.0695 -5.569781,0.22016 -8.3547,0.33291 -2.733852,0.0794 -5.467226,0.15856 -8.199874,0.27267 -2.442998,0.12654 -4.887714,0.1938 -7.333578,0.22373 -2.043615,0.0566 -4.087926,0.0811 -6.131906,0.12425 -1.416458,0.0191 -2.833873,0.0524 -4.249666,-0.008 -0.720273,-0.0402 -1.440247,-0.085 -2.159376,-0.14223 -0.149831,0.007 -0.298561,-0.0337 -0.446934,-0.0386 0.05123,0.26172 0.116104,0.0124 0.177181,-0.0937 0.290893,-0.29271 0.463875,-0.62794 0.60407,-1.01224 0.237254,-0.77324 0.325604,-1.5833 0.417859,-2.38401 0.137575,-1.12004 0.286562,-2.23755 0.334587,-3.36549 0.08792,-1.70205 0.03655,-3.40264 -0.0736,-5.10173 -0.119796,-1.75767 -0.248502,-3.5149 -0.339381,-5.27435 -0.03664,-1.76009 -0.02455,-3.52053 -0.04846,-5.28086 -0.0131,-1.39856 0.06487,-2.79654 0.05136,-4.19474 -0.111136,-1.21657 -0.1,-2.43991 -0.104386,-3.66029 0.03256,-0.79744 -0.01672,-1.59621 0.04009,-2.39267 0.03864,-0.1699 0.0016,-0.44085 0.119332,-0.58668 0.02109,-0.0262 0.08668,0.0333 0.09067,0.0362 0.0704,-0.0298 0.149701,-0.13133 0.23128,-0.13297 0.0266,-5.3e-4 0.04523,0.0356 0.07182,0.0348 0.0057,-1.8e-4 0.188394,-0.0777 0.194945,-0.0804 0.02643,-0.0156 0.157231,-0.0954 0.190317,-0.10444 0.227156,-0.062 0.577729,-0.0294 0.810763,-0.0444 0.62752,-0.10109 1.331097,0.10476 1.948482,-0.007 0.08225,-0.0148 0.158445,-0.0533 0.237667,-0.0799 -0.113607,-0.0935 -0.227214,-0.18692 -0.340823,-0.28039 0,0 -1.77214,-0.62543 -1.77214,-0.62543 v 0 c -0.288689,-0.0599 -0.577379,-0.11985 -0.866066,-0.17977 -0.865452,-0.0467 -1.730343,-0.13249 -2.598197,-0.0788 -0.40911,0.0137 -0.781397,0.0296 -1.137674,0.24636 -0.236289,0.11259 -0.406953,0.29119 -0.582729,0.48346 -0.200716,0.44102 -0.272971,0.89768 -0.282771,1.38273 -0.02522,0.89045 -0.05454,1.78033 -0.07022,2.67094 -0.04078,1.25001 0.03594,2.49888 -0.01146,3.7485 0.02897,1.50799 -2.31e-4,3.01468 0.03631,4.52252 0.03169,1.94533 0.0861,3.89087 0.185148,5.83399 0.1212,1.75552 0.258294,3.50991 0.367951,5.26624 0.108053,1.68642 0.156223,3.37909 0.02196,5.066 -0.104815,1.12091 -0.230296,2.23909 -0.378725,3.3551 -0.112244,0.7772 -0.208764,1.56948 -0.508148,2.30184 -0.164907,0.33927 -0.38027,0.64486 -0.543467,0.98417 -0.1,0.27614 -0.112562,0.5257 0.06238,0.7782 0.170572,0.0321 0.350684,0.01 0.522457,0.0307 0.751012,0.0154 1.500233,0.0758 2.250956,0.0999 1.430234,0.0465 2.86022,0.0767 4.29093,0.0111 2.020798,-0.0449 4.04195,-0.0987 6.063351,-0.0922 2.462681,-0.0322 4.92393,-0.10801 7.38355,-0.23792 2.746753,-0.11178 5.493935,-0.20693 8.241479,-0.29668 2.771828,-0.0874 5.541701,-0.22621 8.313568,-0.31308 3.073138,-0.10537 6.146088,-0.23717 9.221621,-0.24015 3.080996,0.008 6.159251,0.11502 9.237885,0.22938 2.445305,0.0758 4.886952,0.0559 7.332755,0.0229 1.82931,0.11851 3.663391,0.22791 5.496782,0.22356 0.35999,-0.007 1.52621,-0.0231 1.89209,-0.0483 2.98446,-0.20509 -0.89329,-0.004 1.86384,-0.18126 0.28941,-0.0186 0.57965,-0.0206 0.86943,-0.0322 0.30244,-0.0121 0.60481,-0.0259 0.90722,-0.0388 1.32094,-0.0697 2.65638,-0.10353 3.95888,-0.34705 1.26361,-0.37385 2.52912,-0.74132 3.79083,-1.12154 0.17814,-0.0537 0.3555,-0.14731 0.50974,-0.25137 0.0812,-0.0548 0.0914,-0.0696 0.15417,-0.13151 0.12013,-0.11329 0.23723,-0.21866 0.29408,-0.3785 0.11081,-0.30489 0.13078,-0.63784 0.1676,-0.95784 0.0529,-0.59798 0.0917,-1.19742 0.1576,-1.79404 0.026,-0.90019 0.0156,-1.80074 0.0496,-2.70075 0.0345,-1.23856 0.14093,-2.47512 0.31887,-3.70161 0.15326,-1.42696 0.30184,-2.85471 0.41818,-4.2852 0.15153,-1.90274 0.28244,-3.80693 0.4352,-5.70958 0.15805,-2.12282 0.30317,-4.24614 0.40675,-6.37247 0.0677,-1.45243 0.1167,-2.90724 -0.0579,-4.35506 -0.068,-0.59571 -0.10319,-1.24945 -0.42429,-1.77288 -2.15201,-0.3717 -2.60976,-0.86259 -4.04288,-0.48917 -0.54815,0.11097 -1.10498,0.14292 -1.66262,0.17345 -0.49731,0.0337 -1.01095,0.10546 -1.50912,0.0993 -0.53362,-0.007 -1.05583,-0.16111 -1.58957,-0.17004 -0.78012,0.009 -1.55934,0.0266 -2.33887,0.0603 -0.30569,0.0132 -0.61089,0.0399 -0.91682,0.0451 -0.30968,0.005 -0.61941,-0.0203 -0.92906,-0.0139 -0.31458,0.007 -0.6283,0.0353 -0.94245,0.053 -0.497,0.022 -1.36235,0.0648 -1.85936,0.0689 -0.29274,0.002 -0.58541,-0.0122 -0.878157,-0.0128 -0.30915,-8e-4 -0.61836,0.0168 -0.927409,0.009 -0.318831,-0.008 -0.636294,-0.048 -0.955096,-0.0573 -0.356957,-0.0104 -0.714214,-10e-4 -1.071322,-0.002 -0.612693,-0.01 -1.709851,-0.0189 -2.315763,-0.0613 -0.37919,-0.0265 -0.755232,-0.0887 -1.134192,-0.11834 -1.304221,-0.10202 -2.615244,-0.1211 -3.921807,-0.17299 -0.495091,-0.0131 -0.99018,-0.0261 -1.485271,-0.0392 -0.472273,-0.0313 -0.943742,-0.0791 -1.416822,-0.094 -0.678397,-0.0213 -2.537214,0.0192 -3.198492,0.0132 -0.552334,-0.005 -1.104358,-0.0279 -1.656525,-0.0423 -0.564774,-0.0148 -1.129533,-0.0301 -1.694299,-0.0452 -0.609655,-0.0239 -1.219105,-0.0538 -1.828967,-0.0717 -1.416081,-0.0417 -2.83346,-0.0341 -4.249229,-0.0853 -2.424451,-0.0877 -4.84678,-0.31436 -7.275878,-0.21778 -0.8158,-0.0129 -1.631497,-0.0384 -2.447401,-0.0386 -0.719695,-2.1e-4 -1.439127,0.0286 -2.158772,0.0373 -0.703072,0.009 -1.406316,0.002 -2.109319,0.0146 -1.600367,0.0295 -2.468237,0.1024 -4.055597,0.0919 -0.625943,-0.004 -1.251381,-0.0365 -1.877071,-0.0547 -1.212257,-0.0433 -2.184929,-0.0682 -3.387267,-0.14785 -1.539332,-0.10199 -3.073834,-0.26325 -4.610909,-0.38992 -0.500666,-0.0413 -1.002369,-0.0687 -1.503553,-0.10313 -1.394738,-0.10377 -2.78823,-0.21769 -4.180756,-0.34825 -0.18873,-0.0177 -1.801442,-0.18441 -2.068195,-0.19677 -0.23382,-0.0109 -0.468106,0.006 -0.702161,0.009 z"
       inkscape:export-filename="path20.svg"
       inkscape:export-xdpi="96"
       inkscape:export-ydpi="96" />
    <circle
       id="path21"
       style="fill:#000000;stroke:#000000;stroke-width:0.264583"
       cx="35.837311"
       cy="117.52055"
       r="0.021502228" />
  </g>
</svg>
