<?xml version="1.0" encoding="UTF-8" standalone="no"?>
<!-- Created with Inkscape (http://www.inkscape.org/) -->

<svg
   width="40.696976mm"
   height="20.175465mm"
   viewBox="0 0 40.696976 20.175465"
   version="1.1"
   id="svg1"
   sodipodi:docname="druid-elements.svg"
   xmlns:inkscape="http://www.inkscape.org/namespaces/inkscape"
   xmlns:sodipodi="http://sodipodi.sourceforge.net/DTD/sodipodi-0.dtd"
   xmlns="http://www.w3.org/2000/svg"
   xmlns:svg="http://www.w3.org/2000/svg">
  <sodipodi:namedview
     id="namedview1"
     pagecolor="#ffffff"
     bordercolor="#000000"
     borderopacity="0.25"
     inkscape:showpageshadow="2"
     inkscape:pageopacity="0.0"
     inkscape:pagecheckerboard="0"
     inkscape:deskcolor="#d1d1d1"
     inkscape:document-units="mm"
     inkscape:zoom="1.6390042"
     inkscape:cx="113.48354"
     inkscape:cy="646.12403"
     inkscape:window-width="2400"
     inkscape:window-height="1566"
     inkscape:window-x="2869"
     inkscape:window-y="483"
     inkscape:window-maximized="1"
     inkscape:current-layer="layer1" />
  <defs
     id="defs1" />
  <g
     inkscape:label="Layer 1"
     inkscape:groupmode="layer"
     id="layer1"
     transform="translate(-71.599581,-154.22076)">
    <path
       style="fill:#000000;stroke-width:0.264583"
       id="path31"
       d="m 81.510451,157.22401 c -0.07021,0.28381 -0.133956,0.57568 -0.157274,0.86755 -0.01453,0.18195 -0.0024,0.36532 -0.01558,0.54736 -0.0149,0.20345 -0.0502,0.40495 -0.06902,0.60807 -0.02318,0.25027 -0.03798,0.50125 -0.05696,0.75188 -0.07283,0.76621 -0.116991,1.53443 -0.185801,2.30099 -0.02418,0.26931 -0.06038,0.53767 -0.0762,0.8076 -0.02413,1.06444 0.0013,0.53592 -0.07579,1.58561 -0.154506,2.06325 -0.189219,4.1335 -0.317521,6.19824 -0.006,0.63853 -0.07485,1.28962 0.04542,1.92141 -0.01127,0.0428 -0.04604,0.0858 -0.03385,0.12835 0.0131,0.0457 0.06041,0.0753 0.09983,0.10181 0.212338,0.14303 0.501761,0.12477 0.743796,0.12926 0.915739,-0.12057 1.837471,-0.20837 2.759485,-0.26533 1.240401,-0.0467 2.482755,-0.0792 3.723714,-0.0291 0.304943,0.0123 0.609402,0.0346 0.914101,0.0519 0.305761,0.0225 0.611688,0.0428 0.917276,0.0675 0.667661,0.054 1.451827,0.12306 2.118728,0.20406 1.918063,0.23296 0.113022,0.0403 2.007187,0.28839 0.341654,0.0448 0.684853,0.0768 1.027277,0.1152 1.304213,0.20303 2.620282,0.28695 3.934981,0.38455 1.32818,0.0986 0.349105,0.0453 1.73232,0.10541 0.1779,0.005 1.04708,0.0324 1.26253,0.0295 0.20815,-0.003 0.4159,-0.0198 0.62398,-0.0259 0.3416,-0.01 0.68327,-0.007 1.0249,-0.0184 0.26696,-0.0609 0.55197,-0.0151 0.80367,-0.13221 0.17312,-0.0597 0.3194,-0.16269 0.46253,-0.27266 0.2993,-0.22914 0.33817,-0.47739 0.39667,-0.83598 0.10487,-0.70896 0.1362,-1.42451 0.18761,-2.13827 0.0751,-0.94888 0.11954,-1.89924 0.14443,-2.8507 0.0127,-0.90666 -0.0199,-1.81293 -0.0697,-2.71802 -0.044,-0.0996 -0.10619,-0.19303 -0.13199,-0.29882 -0.0268,-0.10994 -0.0156,-0.22578 -0.0235,-0.33867 -0.0272,-0.38934 -0.0526,-0.77818 -0.0675,-1.1682 -0.003,-0.10044 -0.0109,-0.37308 -0.015,-0.47758 -0.003,-0.0759 0.0173,-0.15689 -0.0102,-0.22777 -0.0235,-0.0607 -0.10781,-0.0828 -0.1331,-0.14273 -0.005,-0.0129 -0.0135,-0.34152 -0.0142,-0.36739 -0.0223,-1.61231 0.0219,-0.42637 -1.04786,-3.89253 -0.29838,-0.036 -0.59521,-0.004 -0.89464,0.01 -0.95669,0.0739 -1.91542,0.0561 -2.87374,0.054 -1.125931,-0.0261 -2.253334,-0.0312 -3.378027,-0.0931 -0.585504,-0.0637 -1.175446,-0.0919 -1.760606,-0.15834 -0.170995,-0.0194 -0.339934,-0.0548 -0.510977,-0.0738 -0.46279,-0.0513 -0.927462,-0.0843 -1.390573,-0.13262 -0.691917,-0.0471 -1.381199,-0.12913 -2.072717,-0.18046 -0.791723,-0.0588 -0.721111,-0.0258 -1.516277,-0.10895 -0.203025,-0.0212 -0.404809,-0.053 -0.607213,-0.0795 -1.121114,-0.11593 -2.237814,-0.27042 -3.352713,-0.4348 -0.0067,-10e-4 -0.661744,-0.10902 -0.691875,-0.1149 -0.05349,-0.0104 -0.104748,-0.0312 -0.158527,-0.04 -0.301422,-0.0496 -0.609637,-0.0802 -0.912718,-0.11967 -0.489518,-0.0601 -0.971592,-0.16463 -1.4572,-0.24832 -0.231574,-0.0583 -0.447895,-0.0715 -0.679754,-0.0156 -0.216901,0.049 -0.368255,0.18251 -0.40766,0.41328 -0.576043,3.37357 -0.574699,2.35415 -0.550037,3.83761 0.06376,0.91321 0.123643,1.82472 0.120224,2.74045 -0.03604,0.94918 -0.175945,1.88957 -0.287329,2.83166 -0.04992,0.1335 -0.119616,0.26119 -0.149755,0.4005 -0.03078,0.14227 -0.02259,0.29027 -0.03114,0.43559 -0.02397,0.40802 -0.02262,0.44361 -0.01297,0.85928 0.0035,0.1497 0.02455,0.29955 0.01474,0.44896 -0.0097,0.14757 -0.04865,0.29175 -0.07297,0.43763 2.65e-4,0.44078 0.08855,0.88167 0.08556,1.3223 -7.93e-4,0.12006 -0.02537,0.2389 -0.03159,0.3588 -0.05332,1.02773 0.04802,-0.3302 -0.0263,0.60592 -0.01056,0.0799 0.0016,0.16638 -0.03169,0.23979 -0.02714,0.0597 -0.106847,0.0817 -0.140084,0.13831 -0.0511,0.087 -0.06579,0.37619 -0.06314,0.48729 0.0013,0.0391 0.0296,0.36309 0.03918,0.36257 0.04501,-0.002 0.07452,-0.0507 0.111775,-0.0761 0,0 1.533237,-2.6556 1.533237,-2.6556 v 0 c 0.03093,-0.0613 0.07089,-0.1188 0.09279,-0.18386 0.0411,-0.12212 -0.0227,-0.26823 0.01754,-0.39237 0.01614,-0.10077 0.07566,-0.35438 0.06043,-0.43731 -0.01585,-0.0864 -0.07462,-0.16128 -0.0891,-0.24788 -0.01278,-0.0764 0.0059,-0.15482 0.0088,-0.23223 -0.0011,-0.10862 -0.0032,-0.49347 -0.01288,-0.58628 -0.01326,-0.12708 -0.04611,-0.25147 -0.06247,-0.37818 -0.05395,-0.41787 -0.07169,-0.84109 -0.103024,-1.26085 -0.03967,-0.1801 -0.09594,-0.35733 -0.11902,-0.54029 -0.0186,-0.14747 -0.0066,-0.29726 -0.0054,-0.4459 0.0021,-0.26733 0.01709,-0.5874 0.0361,-0.85581 0.01013,-0.14311 0.04002,-0.28553 0.03573,-0.42893 -0.0048,-0.16233 -0.04201,-0.32207 -0.06301,-0.4831 0.11126,-0.93313 0.232463,-1.86787 0.238657,-2.80918 -0.0091,-0.93878 -0.09295,-1.87477 -0.08718,-2.8136 0.09256,-1.3893 0.01304,-0.0302 -0.48582,2.68525 -0.0114,0.0621 -0.0058,-0.12618 -0.01127,-0.18907 -0.0029,-0.0329 -0.01434,-0.065 -0.01378,-0.0981 0.0011,-0.0551 0.0267,-0.0689 0.06086,-0.10636 0.246089,-0.1089 0.517464,-0.0329 0.775017,-0.01 0.482087,0.0747 0.963922,0.15055 1.448356,0.20921 0.678415,0.0912 1.357273,0.17243 2.038532,0.23996 1.120095,0.11003 2.243328,0.18606 3.363294,0.29797 1.48645,0.10147 2.967823,0.26138 4.452813,0.3821 1.312066,0.12369 2.61947,0.29886 3.935449,0.37962 1.132584,0.0655 2.265011,0.13158 3.400152,0.12164 1.0512,0.003 2.10457,-0.0437 3.15339,0.0541 0.0512,0.004 0.34841,0.0279 0.43465,0.0428 0.0451,0.008 0.0883,0.0244 0.13327,0.0325 0.054,0.01 0.14848,-0.009 0.15834,0.0453 0.003,0.0152 -0.0143,0.0273 -0.0214,0.041 -1.07949,-3.63362 -0.97517,-4.39215 -0.99917,-2.78115 0.002,0.0627 0.005,0.12542 0.007,0.18812 0.003,0.0668 0.0227,0.13505 0.009,0.20043 -0.0207,0.0964 -0.0917,0.17754 -0.11057,0.27431 -0.0146,0.075 0.008,0.1525 0.0126,0.22875 0.0199,0.3546 0.008,0.12082 0.0252,0.49129 0.0112,0.29302 0.0221,0.58599 0.0435,0.87849 0.008,0.10774 0.0176,0.21534 0.0268,0.32297 0.01,0.11584 0.0373,0.2314 0.0303,0.34744 -0.009,0.14824 -0.0519,0.29245 -0.0779,0.43868 0.0693,0.91188 0.13283,1.82548 0.11876,2.74066 -0.0125,0.94568 -0.0447,1.89072 -0.13421,2.83271 -0.0526,0.68549 -0.11467,1.37107 -0.20827,2.05233 -0.0338,0.21938 -0.0201,0.48907 -0.1968,0.64852 -0.0462,0.0339 -0.31365,0.17061 -0.0867,0.0882 -0.1066,0.0765 -0.27069,0.0886 -0.39534,0.0848 -0.32918,0.0367 -0.65999,0.0819 -0.99076,0.1006 -0.52948,0.03 -1.06252,0.0249 -1.59252,0.0309 -0.440728,-0.0143 -1.003653,-0.0297 -1.432926,-0.0572 -1.151943,-0.0738 -2.30128,-0.19742 -3.450897,-0.29847 -1.012751,-0.13712 -2.02642,-0.24578 -3.041767,-0.36125 -0.6971,-0.0793 -1.243478,-0.15309 -1.935329,-0.21493 -0.30648,-0.0274 -0.613661,-0.0463 -0.920491,-0.0694 -0.25056,-0.0175 -1.548733,-0.10935 -1.809914,-0.12242 -0.959897,-0.048 -1.921393,-0.0274 -2.881,0.017 -0.571405,0.0143 -1.14359,0.01 -1.71459,0.0364 -0.141811,0.007 -0.283387,0.0176 -0.425082,0.0264 -0.112982,0.009 -0.225772,0.0207 -0.33895,0.0266 -0.0986,0.005 -0.197419,0.004 -0.296129,0.007 -0.07228,0.0118 -0.303821,0.0848 -0.38711,0.0245 -0.03613,-0.0262 -0.05718,-0.33729 -0.161782,-0.26126 -0.07955,-0.57151 -0.05481,-1.14816 -0.03952,-1.72349 0.01193,-0.60286 0.0026,-0.2287 0.02294,-0.84617 0.0055,-0.16659 0.02487,-0.66624 0.01603,-0.49979 -0.258257,4.85851 -0.09257,2.03451 -0.04436,0.99867 0.131493,-1.90708 -0.04012,0.31278 0.173545,-1.6634 0.03116,-0.28822 0.04521,-0.57803 0.06826,-0.86701 0.06106,-0.76551 0.133175,-1.53007 0.185544,-2.29626 0.02196,-0.22356 0.04557,-0.44696 0.06588,-0.67067 0.02024,-0.22296 0.02601,-0.44742 0.05577,-0.66932 0.02548,-0.19006 0.0799,-0.37531 0.109715,-0.56475 0.04662,-0.29621 0.04714,-0.60005 0.115896,-0.89298 z" />
    <path
       style="fill:#000000;stroke-width:0.264583"
       id="path32"
       d="m 92.360154,161.9063 c -0.06003,-0.036 -0.113456,-0.0866 -0.180079,-0.10809 -0.109206,-0.0353 -0.362762,-0.0193 -0.468973,-0.0138 -0.198099,0.0103 -0.375328,0.0187 -0.568368,0.0766 -0.101005,0.0303 -0.195006,0.0803 -0.29251,0.12051 -0.09975,0.0483 -0.205115,0.0865 -0.29926,0.14505 -0.553381,0.34402 -0.903665,0.93475 -1.20139,1.4935 -0.04658,0.11213 -0.09956,0.22182 -0.139737,0.3364 -0.369597,1.05418 -0.149173,3.10913 -0.116377,3.67311 0.0069,0.11768 0.313102,0.55467 0.372144,0.64404 0.05875,0.0988 0.09864,0.21156 0.17626,0.29632 0.140073,0.15294 0.520465,0.36311 0.691166,0.45339 0.446069,0.2359 0.774904,0.31828 1.263301,0.42563 0.152548,0.0297 0.30318,0.0719 0.457641,0.0891 0.140187,0.0156 0.282009,0.008 0.423059,0.009 0.566666,7.9e-4 1.117576,-0.0605 1.672883,-0.16909 0.568876,-0.14074 1.125739,-0.34405 1.638533,-0.63039 0.243769,-0.13612 0.473496,-0.29598 0.709983,-0.44438 0.252883,-0.19664 0.438703,-0.45128 0.539977,-0.75661 0.03255,-0.0981 0.06767,-0.19894 0.06921,-0.30231 0.04462,-2.98271 0.262004,-2.1279 -0.106185,-3.4009 -0.08213,-0.10279 -0.168029,-0.20268 -0.246377,-0.30838 -0.06762,-0.0912 -0.120714,-0.19291 -0.191193,-0.28194 -0.302864,-0.3826 -0.684342,-0.67483 -1.080834,-0.95158 -0.651065,-0.43446 -1.420656,-0.54734 -2.160553,-0.73938 -0.325287,-0.0348 -0.645382,-0.0887 -0.9711,-0.11883 -0.08871,-0.008 -0.176927,-0.0268 -0.266012,-0.0258 -0.118737,0.001 -0.235051,0.0342 -0.353013,0.0478 0,0 0.194236,2.8178 0.194236,2.8178 v 0 c 0.114732,0.0143 0.226674,0.0474 0.341548,0.0606 0.08373,0.01 0.168709,0.002 0.252664,0.009 0.319874,0.028 0.641901,0.0768 0.952188,0.15925 0.716981,0.0753 1.427927,0.22789 2.029688,0.64742 0.367585,0.2713 0.71465,0.56354 0.968097,0.95001 0.05613,0.0856 0.121613,0.1698 0.149259,0.26836 0.02434,0.0867 0.0013,0.18019 0.0019,0.27029 0.183986,1.09784 0.05383,0.42859 0.08438,-2.16977 0.0013,-0.10133 0.0047,0.20358 -0.0099,0.30384 -0.04514,0.30852 -0.180258,0.59341 -0.388729,0.82286 -0.0532,0.0736 -0.09421,0.15772 -0.159599,0.22071 -0.0913,0.088 -0.198808,0.15796 -0.305144,0.22697 -0.473572,0.30733 -1.011039,0.50163 -1.557652,0.6302 -0.537888,0.10112 -1.064229,0.17345 -1.613578,0.1331 -0.1393,-0.0102 -0.276926,-0.0375 -0.41607,-0.0497 -0.145841,-0.0128 -0.29232,-0.0167 -0.438478,-0.0251 -0.141677,-0.0305 -0.28575,-0.0513 -0.425027,-0.0914 -0.380661,-0.10936 -0.773766,-0.29705 -1.080341,-0.55055 -0.09708,-0.0803 -0.174051,-0.18233 -0.265986,-0.26844 -0.09658,-0.0905 -0.199461,-0.17398 -0.299193,-0.26097 -0.05317,-0.10119 -0.117616,-0.19723 -0.15951,-0.30359 -0.04197,-0.10654 -0.08389,-0.44566 -0.09059,-0.33136 -0.04627,0.78942 -0.02254,1.5814 -0.02903,2.37215 -7.94e-4,0.10954 5.29e-4,-0.21951 0.01228,-0.32842 0.03314,-0.30623 0.08008,-0.40974 0.170016,-0.70766 0.134879,-0.32044 0.167491,-0.43053 0.349609,-0.73042 0.250489,-0.41247 0.59341,-0.74798 0.962888,-1.05366 0.260019,-0.14344 0.506232,-0.30496 0.787286,-0.40491 0.09769,-0.0347 0.362974,-0.10101 0.456864,-0.15719 0.06664,-0.0399 0.117523,-0.10155 0.176284,-0.15232 z" />
    <path
       style="fill:#000000;stroke-width:0.264583"
       id="path33"
       d="m 100.91507,162.77051 c -0.14224,0.0636 -0.29078,0.0974 -0.44686,0.093 -0.0346,-0.001 -0.0716,0.002 -0.10299,-0.013 -0.01,-0.004 0.005,-0.0418 0.007,-0.0313 0.18743,0.88759 0.36596,1.77704 0.54894,2.66556 -0.0261,-0.0305 0.11862,-5.3e-4 0.0905,0.0109 -0.86564,0.34993 -0.58521,-2.68556 -0.59342,-2.72975 -0.005,-0.025 -0.0503,0.009 -0.0758,0.01 -0.0326,2.3e-4 -0.0649,-0.006 -0.0974,-0.008 -0.0575,-0.031 -0.0529,-0.008 -0.0428,-0.0548 0.17138,0.9299 0.32175,1.86393 0.51413,2.78972 0.004,0.0211 0.0431,-0.005 0.0647,-0.004 0.0273,0.001 0.0688,0.0128 0.0961,0.0197 -0.006,-0.006 -0.0111,-0.0125 -0.0166,-0.0187 0,0 -0.40102,-2.72995 -0.40102,-2.72995 v 0 c -0.0149,-0.009 -0.0299,-0.0186 -0.0448,-0.028 -0.0803,-0.003 -0.0374,-0.002 -0.12888,-0.002 -0.0304,-7.9e-4 -0.0943,-0.0346 -0.0911,-0.004 0.26522,2.5249 -0.538421,2.82174 0.54471,2.80077 0.11247,-0.006 0.23946,-0.0118 0.23929,-0.0141 -0.0574,-0.76574 0.58859,-2.9841 -0.49147,-2.76784 -0.0663,0.0133 -0.11433,0.0842 -0.1911,0.0685 0.42638,2.53815 -0.315067,2.99335 1.20573,2.59832 z" />
    <path
       style="fill:#000000;stroke-width:0.264583"
       id="path34"
       d="m 100.88032,165.45489 c 0.0377,-0.0323 0.0703,-0.0718 0.11313,-0.097 0.0497,-0.0291 0.36998,-0.13385 0.40824,-0.0606 0.0149,0.0286 -0.0606,0.1067 -0.0621,0.0744 -0.0425,-0.91678 -0.0413,-1.83506 -0.0619,-2.75259 -0.12563,0.10082 -0.33892,0.13169 -0.48884,0.0595 -0.0175,-0.008 -0.0471,-0.0361 -0.0323,-0.0487 0.037,-0.0314 0.0929,-0.0282 0.13937,-0.0423 -0.0173,0.92768 -0.058,1.85522 -0.052,2.78304 1.8e-4,0.0272 0.043,-0.0375 0.0697,-0.0427 0.05,-0.01 0.17541,0.0107 0.21248,0.0531 0.0218,0.025 0.0158,0.0644 0.0236,0.0966 -0.0368,-0.90988 -0.0736,-1.81977 -0.11043,-2.72965 -5.3e-4,0.0361 0.0139,0.0756 -0.002,0.10819 -0.0766,0.16226 -0.46541,0.14026 -0.5849,0.0538 -0.0327,-0.0237 -0.0426,-0.0685 -0.0639,-0.10268 0.60631,-0.85734 -0.0124,-0.025 0.0806,2.64517 0.001,0.0332 0.0552,-0.0386 0.0867,-0.049 0.0582,-0.0192 0.11848,-0.0404 0.17976,-0.0389 0.10143,0.003 0.21917,0.0637 0.31079,0.10476 -0.003,1.09805 0.003,-0.66108 -0.0913,-2.78493 -0.001,-0.022 -0.0155,0.0457 -0.035,0.0559 -0.0504,0.0264 -0.10755,0.0396 -0.16379,0.0484 -0.19118,0.03 -0.19476,0.0117 -0.36655,-0.0337 -0.0209,-0.0179 -0.17829,-0.12117 -0.15115,-0.19442 0.0125,-0.0338 0.093,-0.0914 0.0927,-0.0554 -0.0366,0.98277 -0.0732,1.96555 -0.10982,2.94833 -0.0794,0.0275 -0.0584,-2e-5 -0.0721,0.0751 -0.688263,0.81227 -0.0158,0.0511 -0.0539,-2.81832 -2.7e-4,-0.0258 -0.0249,0.0482 -0.047,0.0617 -0.0289,0.0177 -0.06405,0.0256 -0.09786,0.027 -0.102373,0.004 -0.168799,-0.0302 -0.261964,-0.0639 -0.0258,-0.0255 -0.06662,-0.0418 -0.07741,-0.0764 -0.0087,-0.0278 0.02703,-0.11188 0.02779,-0.0828 0.02455,0.9484 -0.01384,1.89885 0.04373,2.84582 0.003,0.0501 0.07677,-0.0686 0.124105,-0.0854 0.144984,-0.0514 0.214369,-0.0199 0.354629,0.007 0.0259,0.0214 0.0964,0.0362 0.0778,0.0641 -0.0336,0.0504 -0.1648,0.1309 -0.16755,0.0704 -0.0441,-0.97179 0.0474,-1.94537 0.0384,-2.91812 -2.5e-4,-0.0272 -0.0399,0.0386 -0.0648,0.0494 -0.07914,0.0346 -0.117647,0.0225 -0.198763,0.0168 0.228213,-0.96712 2.11e-4,-0.0109 0.09999,2.87392 5.29e-4,0.0141 -0.0073,-0.035 0.0049,-0.042 0.03921,-0.0225 0.08631,-0.028 0.130823,-0.036 0.16435,-0.0294 0.17239,-0.0171 0.33711,-5.3e-4 0.10764,0.0279 0.24295,0.0493 0.31379,0.14822 0.0348,0.0486 0.0532,0.12186 -0.0411,0.078 0,0 0.40579,-2.90074 0.40579,-2.90074 v 0 c -0.16514,-0.18598 -0.43454,-0.23127 -0.67182,-0.23919 -0.19125,0.008 -0.3855,0.0106 -0.575907,0.0317 -0.06411,0.007 -0.188177,-0.0355 -0.191344,0.029 -0.145285,2.95627 -0.897117,2.68765 0.158094,3.00901 0.05854,0.007 0.515507,0.0673 0.526367,-0.0204 0.24781,-2.00078 1.12549,-2.89837 -0.16278,-3.17895 -0.0773,0.002 -0.15495,-0.002 -0.23183,0.006 -0.08618,0.009 -0.171424,0.0263 -0.256056,0.0448 -0.07856,0.0172 -0.22343,-0.0173 -0.233045,0.0626 -0.23527,1.95399 -0.979043,2.63964 0.130681,3.1779 0.204012,0.0693 0.395149,0.11706 0.61314,0.0742 1.11722,-0.21948 1.08204,-2.53689 0.19098,-3.17791 -1.198537,-0.6594 -0.483578,2.21261 -0.503361,2.8919 -0.0011,0.038 0.06928,0.0315 0.102304,0.0503 0.277577,0.15796 -0.06001,-0.005 0.306947,0.16074 0.0836,0.0294 0.16384,0.0713 0.25086,0.0882 0.13759,0.0267 0.377,0.0114 0.51338,-0.0213 0.079,-0.0189 0.22396,-10e-4 0.22935,-0.0823 0.0674,-1.01116 0.0322,-2.02815 -0.0214,-3.04014 -0.003,-0.048 -0.0941,-0.0197 -0.14119,-0.0296 -0.30089,-0.0615 -0.0768,-0.0322 -0.41895,-0.0253 -0.0829,0.002 -0.1664,-0.0132 -0.2487,-0.003 -0.0852,0.0104 -0.23846,-0.0213 -0.24944,0.0638 -0.361418,2.80165 -0.887005,2.32633 -0.0171,3.02534 0.42937,0.20966 0.87806,0.30698 1.27413,-0.0293 -0.031,-0.98765 -0.0128,-1.97807 -0.0931,-2.96294 -0.005,-0.06 -0.10065,-0.0673 -0.15594,-0.0911 -0.1386,-0.0597 -0.22659,-0.0672 -0.37578,-0.0626 -1.141413,0.0353 -0.26699,1.20733 -0.38344,2.9103 0.0926,0.0476 0.17776,0.1 0.28111,0.12198 0.25948,0.0553 0.52822,0.004 0.7718,-0.0884 0.0148,-0.95737 0.0782,-1.91521 0.0445,-2.8721 -0.002,-0.0487 -0.0972,-0.01 -0.14595,-0.01 -0.24652,-1.6e-4 -0.48791,0.0433 -0.71137,0.14996 z" />
    <path
       style="fill:#000000;stroke-width:0.264583"
       id="path35"
       d="m 86.90162,159.13143 c 0.08681,-0.0226 0.284022,-0.0712 0.350366,-0.10357 0.09366,-0.0457 0.177186,-0.10978 0.265496,-0.16512 0.216911,-0.13593 0.425307,-0.28519 0.642877,-0.42006 0.109495,-0.0679 0.224229,-0.12692 0.336341,-0.19037 0.562271,-0.34432 1.09551,-0.7331 1.673053,-1.05162 0.109238,-0.0322 0.284025,-0.15381 0.404003,-0.1453 0.19653,0.0198 0.394533,0.0298 0.591886,0.0507 0.425569,0.0717 0.846452,0.17239 1.266089,0.27305 0.503722,0.11957 1.011399,0.22888 1.527416,0.27717 0.281596,0.0317 0.564491,-0.001 0.846675,0.0106 -0.160579,0.0864 0.192674,-0.0258 0.18293,0.0356 -0.0076,0.0481 -0.09329,0.0157 -0.08636,0.0889 0.0029,0.0309 0.02093,0.0585 0.03141,0.0877 0.02127,0.0305 0.04038,0.0626 0.06386,0.0915 0.09637,0.11832 0.203065,0.22792 0.300741,0.34516 0.196091,0.23537 0.376177,0.47973 0.578842,0.70974 0.175932,0.20519 0.356325,0.4066 0.538874,0.60592 0.04858,0.053 0.0915,0.11215 0.14682,0.15812 0.564857,0.46939 -0.01683,-0.0868 0.348644,0.27175 0.128249,0.1143 0.250937,0.2239 0.433139,0.205 0.03488,-0.004 0.09146,0.0112 0.102873,-0.022 0.06098,-0.17714 0.06358,-0.36925 0.09536,-0.55388 0,0 0.04213,-1.69064 0.04213,-1.69064 v 0 c -0.01577,-0.19673 -0.01333,-0.39578 -0.04735,-0.59019 -0.0108,-0.0617 -0.338775,-0.33299 -0.400804,-0.38125 -0.383225,-0.32465 0.07554,0.0977 -0.147751,-0.19747 -0.04027,-0.0532 -0.09769,-0.091 -0.146095,-0.13694 -0.183616,-0.17435 -0.361934,-0.35407 -0.528614,-0.54488 -0.310234,-0.37902 -0.675412,-0.73985 -0.848011,-1.20795 -0.06188,-0.11224 -0.153074,-0.18556 -0.289613,-0.17657 -0.01548,0.001 -0.03806,0.005 -0.0423,0.0195 -0.0033,0.0117 0.02114,0.012 0.03169,0.0179 -0.274093,0.0243 -0.547971,0.051 -0.823465,0.0481 -0.502082,-0.0348 -1.001303,-0.0934 -1.486213,-0.2358 -0.428884,-0.11386 -0.850228,-0.25737 -1.286697,-0.34032 -0.210278,-0.0368 -0.430816,-0.071 -0.643851,-0.0427 -0.07588,0.007 -0.161613,0.006 -0.232418,0.0384 -0.119234,0.0548 -0.213376,0.16075 -0.328895,0.221 -0.590611,0.4103 -1.137105,0.88116 -1.708256,1.3174 -0.320596,0.27961 -0.651582,0.54078 -0.987176,0.80211 -0.086,0.067 -0.17738,0.12719 -0.260308,0.19794 -0.121071,0.10328 -0.22102,0.22994 -0.349409,0.32533 z" />
    <path
       style="fill:#000000;stroke-width:0.264583"
       id="path36"
       d="m 76.65636,157.9151 c 0.0021,-0.0949 0.01812,-0.19057 0.0065,-0.28483 -0.104117,-0.84639 -0.844876,-1.29363 -1.494177,-1.70872 -0.55795,-0.30182 -1.125659,-0.5845 -1.682681,-0.88807 -0.149243,-0.0813 -0.291317,-0.17665 -0.445868,-0.24738 -0.12329,-0.0564 -0.256352,-0.0884 -0.384527,-0.13264 0,0 -1.056031,2.07637 -1.056031,2.07637 v 0 c 0.106161,0.0938 0.201202,0.20189 0.318484,0.28131 0.141984,0.0962 0.301641,0.16324 0.454044,0.24184 0.555185,0.28634 1.131673,0.53324 1.657075,0.87463 0.427534,0.30676 0.49503,0.32796 0.85622,0.68616 0.59082,0.58591 -0.02101,0.0589 0.523293,0.51757 0.179991,0.15168 0.09565,0.10774 0.272759,0.16719 z" />
    <path
       style="fill:#000000;stroke-width:0.264583"
       id="path37"
       d="m 76.978472,163.32914 c -0.165338,-0.0629 -0.286459,-0.11966 -0.479192,-0.12257 -0.16637,-0.002 -0.331626,0.0285 -0.496774,0.0488 -0.704937,0.0865 -1.326279,0.23015 -2.012511,0.40764 -0.334936,0.28885 -0.669872,0.57771 -1.00481,0.86656 0,0 -0.456031,0.80176 -0.456031,0.80176 v 0 c 0.0598,0.18846 0.119594,0.37692 0.179393,0.56538 0.45648,-0.0769 0.847558,-0.14859 1.307862,-0.20228 1.907434,-0.22247 -0.561166,0.0831 1.023755,-0.0682 0.713615,-0.0681 0.0555,-0.0564 0.507415,-0.0579 z" />
    <path
       style="fill:#000000;stroke-width:0.264583"
       id="path38"
       d="m 76.752796,167.99257 c -0.507188,0.40234 -1.015445,0.8038 -1.518262,1.21161 -0.264387,0.21443 -0.549521,0.40645 -0.789035,0.64835 -0.403495,0.40751 -0.755991,0.86253 -1.133985,1.29379 0,0 -0.373735,0.6783 -0.373735,0.6783 v 0 c 0.112067,0.0519 0.219795,0.19715 0.336204,0.15584 0.282979,-0.10042 0.486092,-0.3527 0.726281,-0.5329 0.46419,-0.34827 0.914416,-0.71637 1.404054,-1.02973 z" />
    <path
       style="fill:#000000;stroke-width:0.264583"
       id="path39"
       d="m 106.00322,160.59515 c 0.0914,-0.0766 0.16899,-0.17344 0.27406,-0.22976 0.14233,-0.0763 0.309,-0.0964 0.45661,-0.16189 0.23409,-0.10386 1.30029,-0.66873 1.47472,-0.7577 1.28138,-0.65359 0.34764,-0.13752 1.62144,-0.87113 1.10727,-0.69687 0.56515,-0.26632 1.58503,-1.34202 0,0 0.18329,-0.66721 0.18329,-0.66721 v 0 c -0.7386,-0.28771 -0.33796,-0.25041 -1.20707,-0.008 -0.98715,0.31604 -0.5505,0.15091 -1.54496,0.57775 -0.40296,0.17296 -1.08102,0.45272 -1.46884,0.68403 -0.1875,0.11184 -0.34734,0.26565 -0.53235,0.38157 -0.0767,0.0481 -0.16614,0.0721 -0.24921,0.10815 z" />
    <path
       style="fill:#000000;stroke-width:0.264583"
       id="path40"
       d="m 107.5498,165.26038 c 0.0881,0.001 0.17703,0.0151 0.26429,0.003 0.21084,-0.0294 0.97136,-0.23728 1.11394,-0.27192 0.38039,-0.0924 1.013,-0.20195 1.36447,-0.38397 0.26404,-0.13674 0.48941,-0.33784 0.73411,-0.50677 0,0 0.44045,-1.44093 0.44045,-1.44093 v 0 c -0.16793,-0.0808 -0.32022,-0.21024 -0.50377,-0.24238 -0.26819,-0.0469 -1.04653,0.12165 -1.2927,0.15933 -0.465,0.0712 -0.95775,0.0647 -1.38898,0.27354 z" />
    <path
       style="fill:#000000;stroke-width:0.264583"
       id="path41"
       d="m 108.75991,172.88222 c 0.13394,0.13721 0.64964,0.6697 0.75596,0.75749 0.16476,0.13605 0.31476,0.33825 0.52671,0.36537 0.28202,0.0361 0.55408,-0.12779 0.83113,-0.19169 0,0 0.59851,-1.02903 0.59851,-1.02903 v 0 c -0.062,-0.29372 -0.051,-0.61304 -0.18605,-0.88117 -0.0955,-0.18959 -0.31149,-0.28863 -0.4726,-0.42685 -0.70832,-0.60763 -0.20962,-0.11105 -0.7662,-0.69732 z" />
    <path
       style="fill:#000000;stroke-width:0.264583"
       id="path42"
       d="m 106.73826,172.04219 c 0.095,0.0366 0.18945,0.0746 0.28496,0.10981 0.41255,0.15208 0.5565,0.18396 0.96623,0.38193 0.57411,0.2774 1.11635,0.6126 1.64808,0.96216 0.98434,0.67052 0.0712,0.0332 0.92388,0.66812 0.1071,0.0798 0.19454,0.24592 0.32724,0.23108 0.23263,-0.026 0.41085,-0.22443 0.61628,-0.33664 0,0 0.69339,-1.11902 0.69339,-1.11902 v 0 c 0.0258,-0.23787 0.14587,-0.48436 0.0774,-0.7136 -0.0435,-0.14548 -0.2441,-0.18081 -0.37,-0.26568 -0.30891,-0.20824 -0.63648,-0.38813 -0.9354,-0.61167 -0.0236,-0.0145 -1.11921,-0.68839 -1.14666,-0.70419 -0.31228,-0.17973 -0.74421,-0.39792 -1.07401,-0.55522 -0.15071,-0.0719 -0.29868,-0.15103 -0.45542,-0.20858 -0.10326,-0.0379 -0.21402,-0.051 -0.32103,-0.0765 z" />
  </g>
</svg>
