<?xml version="1.0" encoding="UTF-8" standalone="no"?>
<!-- Created with Inkscape (http://www.inkscape.org/) -->

<svg
   width="22.536636mm"
   height="23.339281mm"
   viewBox="0 0 22.536636 23.339281"
   version="1.1"
   id="svg1"
   sodipodi:docname="druid-elements.svg"
   xmlns:inkscape="http://www.inkscape.org/namespaces/inkscape"
   xmlns:sodipodi="http://sodipodi.sourceforge.net/DTD/sodipodi-0.dtd"
   xmlns="http://www.w3.org/2000/svg"
   xmlns:svg="http://www.w3.org/2000/svg">
  <sodipodi:namedview
     id="namedview1"
     pagecolor="#ffffff"
     bordercolor="#000000"
     borderopacity="0.25"
     inkscape:showpageshadow="2"
     inkscape:pageopacity="0.0"
     inkscape:pagecheckerboard="0"
     inkscape:deskcolor="#d1d1d1"
     inkscape:document-units="mm"
     inkscape:zoom="1.6390042"
     inkscape:cx="113.48354"
     inkscape:cy="646.12403"
     inkscape:window-width="2400"
     inkscape:window-height="1566"
     inkscape:window-x="2869"
     inkscape:window-y="483"
     inkscape:window-maximized="1"
     inkscape:current-layer="layer1" />
  <defs
     id="defs1" />
  <g
     inkscape:label="Layer 1"
     inkscape:groupmode="layer"
     id="layer1"
     transform="translate(-50.405091,-112.12577)">
    <path
       style="fill:#000000;stroke-width:0.264583"
       id="path20"
       d="m 38.1607,107.73633 c 0.235805,0.0338 0.470694,0.0748 0.707414,0.10139 0.262229,0.0295 1.872496,0.16182 2.057641,0.17818 1.438701,0.12715 2.877595,0.24965 4.316841,0.37081 2.145006,0.17008 4.287329,0.37128 6.433399,0.52739 0.539705,0.0393 1.078778,0.0897 1.619324,0.11489 0.640736,0.0298 1.282428,0.0333 1.923643,0.0499 2.089748,-0.0273 4.182647,-0.004 6.27131,-0.0932 0.757277,-0.0322 1.512861,-0.097 2.269834,-0.1356 1.497031,-0.0764 3.361015,-0.13316 4.841724,-0.18379 2.52671,0.0707 5.053822,-0.0541 7.580537,-0.0163 1.43781,0.0215 2.873724,0.1185 4.31142,0.14657 0.645528,0.0126 1.29128,0.008 1.936919,0.0113 0.59214,-1.1e-4 1.184349,0.009 1.776421,-2.7e-4 0.581255,-0.009 1.161933,-0.0426 1.743167,-0.0525 5.778704,-0.0986 -2.360194,0.0785 3.219606,0.006 3.073456,-0.0401 0.07048,-0.0932 3.039899,-0.011 1.319366,0.0113 2.63371,0.15757 3.951102,0.20525 0.407498,0.0147 0.815565,0.003 1.223248,0.0111 4.916881,0.0997 -2.465229,-0.0166 2.329598,0.0547 0.361743,0.002 0.723593,0.0153 1.085213,0.006 0.3486,-0.009 0.69583,-0.0497 1.04436,-0.061 0.31339,-0.0101 0.62717,0.004 0.94064,-0.003 0.92855,-0.02 1.85871,-0.0667 2.78636,-0.11139 0.31392,-0.0194 0.62859,-0.0289 0.94175,-0.0581 0.32915,-0.0306 0.65485,-0.0937 0.98427,-0.12124 1.084,-0.0907 2.18405,-0.0618 3.27107,-0.0832 0.62065,-0.008 1.21388,-0.20929 1.82423,-0.28763 0.50096,-0.0643 1.01984,-0.0694 1.52416,-0.0973 0.58749,-0.002 1.1629,-0.0799 1.73508,-0.20431 0.144,-0.0222 0.2977,-0.0771 0.44541,-0.0426 0.0319,0.007 0.1221,0.045 0.0897,0.04 -1.10282,-0.16754 -2.20295,-0.35229 -3.30443,-0.52843 0.0325,0.007 0.0691,0.004 0.0975,0.0211 0.30751,0.18594 0.38315,1.08869 0.43136,1.39171 0.16911,1.4235 0.12145,2.86382 0.0576,4.29266 -0.15016,2.17127 -0.29562,4.34336 -0.49102,6.51109 -0.2067,2.06478 -0.31959,4.13754 -0.51808,6.2031 -0.15199,1.53703 -0.25867,3.0772 -0.41726,4.61358 -0.15176,1.30228 -0.25718,2.60551 -0.32413,3.9147 -0.008,0.92624 -0.0228,1.85122 -0.0729,2.77628 -0.0145,0.63522 -0.089,1.26827 -0.16233,1.89914 -0.0473,0.35745 -0.0271,0.55556 -0.22663,0.85682 -0.11016,0.11139 -0.20643,0.20468 -0.34467,0.27814 -0.14125,0.0708 -0.28394,0.13291 -0.4361,0.17651 -0.0703,0.0202 -0.28216,0.0776 -0.21219,0.0562 1.07152,-0.32734 2.14463,-0.64941 3.21695,-0.97412 -1.30356,0.33759 -2.6618,0.37167 -3.99951,0.4455 -1.19484,0.12463 -2.39111,0.015 -3.5865,0.0124 -0.62219,-0.001 -1.24395,0.0339 -1.86607,0.0429 -1.84375,0.006 -3.67957,-0.17735 -5.522237,-0.18882 -2.462758,-0.0817 -4.927478,-0.0268 -7.391133,-0.0286 -3.1085,-0.10757 -6.216856,-0.1812 -9.327221,-0.18848 -3.050506,-0.01 -6.099598,0.0984 -9.148334,0.18771 -2.78656,0.0695 -5.569781,0.22016 -8.3547,0.33291 -2.733852,0.0794 -5.467226,0.15856 -8.199874,0.27267 -2.442998,0.12654 -4.887714,0.1938 -7.333578,0.22373 -2.043615,0.0566 -4.087926,0.0811 -6.131906,0.12425 -1.416458,0.0191 -2.833873,0.0524 -4.249666,-0.008 -0.720273,-0.0402 -1.440247,-0.085 -2.159376,-0.14223 -0.149831,0.007 -0.298561,-0.0337 -0.446934,-0.0386 0.05123,0.26172 0.116104,0.0124 0.177181,-0.0937 0.290893,-0.29271 0.463875,-0.62794 0.60407,-1.01224 0.237254,-0.77324 0.325604,-1.5833 0.417859,-2.38401 0.137575,-1.12004 0.286562,-2.23755 0.334587,-3.36549 0.08792,-1.70205 0.03655,-3.40264 -0.0736,-5.10173 -0.119796,-1.75767 -0.248502,-3.5149 -0.339381,-5.27435 -0.03664,-1.76009 -0.02455,-3.52053 -0.04846,-5.28086 -0.0131,-1.39856 0.06487,-2.79654 0.05136,-4.19474 -0.111136,-1.21657 -0.1,-2.43991 -0.104386,-3.66029 0.03256,-0.79744 -0.01672,-1.59621 0.04009,-2.39267 0.03864,-0.1699 0.0016,-0.44085 0.119332,-0.58668 0.02109,-0.0262 0.08668,0.0333 0.09067,0.0362 0.0704,-0.0298 0.149701,-0.13133 0.23128,-0.13297 0.0266,-5.3e-4 0.04523,0.0356 0.07182,0.0348 0.0057,-1.8e-4 0.188394,-0.0777 0.194945,-0.0804 0.02643,-0.0156 0.157231,-0.0954 0.190317,-0.10444 0.227156,-0.062 0.577729,-0.0294 0.810763,-0.0444 0.62752,-0.10109 1.331097,0.10476 1.948482,-0.007 0.08225,-0.0148 0.158445,-0.0533 0.237667,-0.0799 -0.113607,-0.0935 -0.227214,-0.18692 -0.340823,-0.28039 0,0 -1.77214,-0.62543 -1.77214,-0.62543 v 0 c -0.288689,-0.0599 -0.577379,-0.11985 -0.866066,-0.17977 -0.865452,-0.0467 -1.730343,-0.13249 -2.598197,-0.0788 -0.40911,0.0137 -0.781397,0.0296 -1.137674,0.24636 -0.236289,0.11259 -0.406953,0.29119 -0.582729,0.48346 -0.200716,0.44102 -0.272971,0.89768 -0.282771,1.38273 -0.02522,0.89045 -0.05454,1.78033 -0.07022,2.67094 -0.04078,1.25001 0.03594,2.49888 -0.01146,3.7485 0.02897,1.50799 -2.31e-4,3.01468 0.03631,4.52252 0.03169,1.94533 0.0861,3.89087 0.185148,5.83399 0.1212,1.75552 0.258294,3.50991 0.367951,5.26624 0.108053,1.68642 0.156223,3.37909 0.02196,5.066 -0.104815,1.12091 -0.230296,2.23909 -0.378725,3.3551 -0.112244,0.7772 -0.208764,1.56948 -0.508148,2.30184 -0.164907,0.33927 -0.38027,0.64486 -0.543467,0.98417 -0.1,0.27614 -0.112562,0.5257 0.06238,0.7782 0.170572,0.0321 0.350684,0.01 0.522457,0.0307 0.751012,0.0154 1.500233,0.0758 2.250956,0.0999 1.430234,0.0465 2.86022,0.0767 4.29093,0.0111 2.020798,-0.0449 4.04195,-0.0987 6.063351,-0.0922 2.462681,-0.0322 4.92393,-0.10801 7.38355,-0.23792 2.746753,-0.11178 5.493935,-0.20693 8.241479,-0.29668 2.771828,-0.0874 5.541701,-0.22621 8.313568,-0.31308 3.073138,-0.10537 6.146088,-0.23717 9.221621,-0.24015 3.080996,0.008 6.159251,0.11502 9.237885,0.22938 2.445305,0.0758 4.886952,0.0559 7.332755,0.0229 1.82931,0.11851 3.663391,0.22791 5.496782,0.22356 0.35999,-0.007 1.52621,-0.0231 1.89209,-0.0483 2.98446,-0.20509 -0.89329,-0.004 1.86384,-0.18126 0.28941,-0.0186 0.57965,-0.0206 0.86943,-0.0322 0.30244,-0.0121 0.60481,-0.0259 0.90722,-0.0388 1.32094,-0.0697 2.65638,-0.10353 3.95888,-0.34705 1.26361,-0.37385 2.52912,-0.74132 3.79083,-1.12154 0.17814,-0.0537 0.3555,-0.14731 0.50974,-0.25137 0.0812,-0.0548 0.0914,-0.0696 0.15417,-0.13151 0.12013,-0.11329 0.23723,-0.21866 0.29408,-0.3785 0.11081,-0.30489 0.13078,-0.63784 0.1676,-0.95784 0.0529,-0.59798 0.0917,-1.19742 0.1576,-1.79404 0.026,-0.90019 0.0156,-1.80074 0.0496,-2.70075 0.0345,-1.23856 0.14093,-2.47512 0.31887,-3.70161 0.15326,-1.42696 0.30184,-2.85471 0.41818,-4.2852 0.15153,-1.90274 0.28244,-3.80693 0.4352,-5.70958 0.15805,-2.12282 0.30317,-4.24614 0.40675,-6.37247 0.0677,-1.45243 0.1167,-2.90724 -0.0579,-4.35506 -0.068,-0.59571 -0.10319,-1.24945 -0.42429,-1.77288 -2.15201,-0.3717 -2.60976,-0.86259 -4.04288,-0.48917 -0.54815,0.11097 -1.10498,0.14292 -1.66262,0.17345 -0.49731,0.0337 -1.01095,0.10546 -1.50912,0.0993 -0.53362,-0.007 -1.05583,-0.16111 -1.58957,-0.17004 -0.78012,0.009 -1.55934,0.0266 -2.33887,0.0603 -0.30569,0.0132 -0.61089,0.0399 -0.91682,0.0451 -0.30968,0.005 -0.61941,-0.0203 -0.92906,-0.0139 -0.31458,0.007 -0.6283,0.0353 -0.94245,0.053 -0.497,0.022 -1.36235,0.0648 -1.85936,0.0689 -0.29274,0.002 -0.58541,-0.0122 -0.878157,-0.0128 -0.30915,-8e-4 -0.61836,0.0168 -0.927409,0.009 -0.318831,-0.008 -0.636294,-0.048 -0.955096,-0.0573 -0.356957,-0.0104 -0.714214,-10e-4 -1.071322,-0.002 -0.612693,-0.01 -1.709851,-0.0189 -2.315763,-0.0613 -0.37919,-0.0265 -0.755232,-0.0887 -1.134192,-0.11834 -1.304221,-0.10202 -2.615244,-0.1211 -3.921807,-0.17299 -0.495091,-0.0131 -0.99018,-0.0261 -1.485271,-0.0392 -0.472273,-0.0313 -0.943742,-0.0791 -1.416822,-0.094 -0.678397,-0.0213 -2.537214,0.0192 -3.198492,0.0132 -0.552334,-0.005 -1.104358,-0.0279 -1.656525,-0.0423 -0.564774,-0.0148 -1.129533,-0.0301 -1.694299,-0.0452 -0.609655,-0.0239 -1.219105,-0.0538 -1.828967,-0.0717 -1.416081,-0.0417 -2.83346,-0.0341 -4.249229,-0.0853 -2.424451,-0.0877 -4.84678,-0.31436 -7.275878,-0.21778 -0.8158,-0.0129 -1.631497,-0.0384 -2.447401,-0.0386 -0.719695,-2.1e-4 -1.439127,0.0286 -2.158772,0.0373 -0.703072,0.009 -1.406316,0.002 -2.109319,0.0146 -1.600367,0.0295 -2.468237,0.1024 -4.055597,0.0919 -0.625943,-0.004 -1.251381,-0.0365 -1.877071,-0.0547 -1.212257,-0.0433 -2.184929,-0.0682 -3.387267,-0.14785 -1.539332,-0.10199 -3.073834,-0.26325 -4.610909,-0.38992 -0.500666,-0.0413 -1.002369,-0.0687 -1.503553,-0.10313 -1.394738,-0.10377 -2.78823,-0.21769 -4.180756,-0.34825 -0.18873,-0.0177 -1.801442,-0.18441 -2.068195,-0.19677 -0.23382,-0.0109 -0.468106,0.006 -0.702161,0.009 z"
       inkscape:export-filename="button.svg"
       inkscape:export-xdpi="96"
       inkscape:export-ydpi="96" />
    <path
       style="fill:#000000;stroke-width:0.264583"
       id="path52"
       d="m 63.491191,112.52854 c -0.384026,-0.028 -0.761359,0.0633 -1.139216,0.11327 -0.118978,0.0157 -0.238763,0.0246 -0.358143,0.0369 -0.157189,0.0225 -0.314375,0.0449 -0.471564,0.0674 -0.963353,0.15912 -1.934324,0.28171 -2.891075,0.47928 -0.687298,0.14192 -0.81638,0.19177 -1.483289,0.38182 -0.21486,0.078 -0.43344,0.14642 -0.644578,0.234 -0.753139,0.31241 -1.608116,0.78986 -2.205786,1.34846 -0.136962,0.12801 -0.257461,0.27256 -0.386191,0.40884 -0.907616,1.0094 -1.452539,2.23919 -2.048759,3.45119 -0.108482,0.22053 -0.188449,0.45408 -0.290655,0.67759 -0.08668,0.18955 -0.183875,0.37412 -0.275813,0.56119 -0.335195,0.79643 -0.161144,0.3168 -0.411588,1.20112 -0.09427,0.33286 -0.194694,0.6308 -0.262223,0.96955 -0.06159,0.30894 -0.09409,0.62697 -0.131339,0.93957 -0.07459,0.92511 -0.110472,1.85305 -0.06723,2.78037 0.07891,0.94653 0.226616,1.88218 0.473565,2.79919 0.05465,0.15083 0.09854,0.306 0.163943,0.45249 0.05265,0.11794 0.127567,0.22463 0.189064,0.33821 0.09985,0.1844 0.33383,0.64898 0.452072,0.82472 0.170487,0.25339 0.397841,0.48898 0.601729,0.71448 0.122568,0.12141 0.509862,0.51428 0.656746,0.62493 0.104449,0.0787 0.227269,0.12986 0.336021,0.20248 0.290637,0.2115 0.428519,0.31642 0.72617,0.51505 0.680588,0.45416 1.363763,0.90444 2.045642,1.35666 0.522994,0.31477 1.069226,0.62153 1.647804,0.82504 1.533882,0.53955 -0.555432,-0.25974 0.852386,0.28779 0.143537,0.0377 0.283253,0.0955 0.430607,0.11313 0.174252,0.0209 0.351737,-0.0148 0.526481,0.001 0.295799,0.0274 0.580819,0.1284 0.875255,0.16787 0.274979,0.0369 0.634611,0.0452 0.909844,0.0567 0.860295,0.0406 1.706787,-0.12753 2.557206,-0.21984 0.127656,-0.0304 0.255291,-0.0608 0.382968,-0.0911 0.134816,-0.032 0.271884,-0.0555 0.404511,-0.0956 0.127223,-0.0385 0.249211,-0.0925 0.373507,-0.13952 0.430588,-0.163 0.818992,-0.34653 1.233123,-0.54461 0.511381,-0.30008 1.052461,-0.55604 1.526091,-0.91759 0.0944,-0.0721 0.17565,-0.16011 0.26652,-0.23665 0.1005,-0.0846 0.20496,-0.16446 0.30744,-0.2467 0.20326,-0.21313 0.48831,-0.31036 0.71495,-0.48935 0.0872,-0.0688 0.1491,-0.16547 0.23337,-0.23781 0.0963,-0.0827 0.21057,-0.14272 0.30655,-0.22572 0.34424,-0.34869 0.1695,-0.18748 0.52169,-0.48633 0.24371,-0.30477 0.533812,-0.57405 0.759982,-0.8933 0.10526,-0.14859 0.19255,-0.30914 0.28926,-0.46344 0.0476,-0.0762 0.0993,-0.1499 0.14276,-0.22851 0.12745,-0.23067 0.15775,-0.34605 0.26479,-0.59911 0.14428,-0.34112 0.30533,-0.67185 0.47481,-1.00095 0.0496,-0.14198 0.0958,-0.28523 0.14891,-0.42595 0.0482,-0.12778 0.11296,-0.24935 0.15502,-0.37931 0.0635,-0.19632 0.15664,-0.65395 0.18578,-0.85814 0.37346,-2.6166 0.12883,-1.5099 0.3814,-2.60678 10e-4,-0.37806 -0.0321,-0.7553 -0.0649,-1.1316 -0.011,-0.12564 -0.0338,-0.25054 -0.036,-0.37664 -0.0148,-0.84535 0.0926,0.28357 -0.0179,-0.66975 -0.14288,-0.92022 -0.40156,-1.7811 -0.71492,-2.65486 -0.13507,-0.24763 -0.17751,-0.53665 -0.30744,-0.78627 -0.0731,-0.14051 -0.17877,-0.26174 -0.26058,-0.39738 -0.0723,-0.1199 -0.12963,-0.24839 -0.2014,-0.36862 -0.13572,-0.22734 -0.28746,-0.44475 -0.42848,-0.66885 -0.903452,-1.12349 0.42933,0.54344 -0.46373,-0.60565 -0.0949,-0.12204 -0.200902,-0.2352 -0.293772,-0.35875 -0.0992,-0.13194 -0.34245,-0.52185 -0.44597,-0.65104 -0.0964,-0.12033 -0.20683,-0.22872 -0.31025,-0.34308 -0.2238,-0.26797 -0.24521,-0.30192 -0.48261,-0.55369 -0.0808,-0.0857 -0.14822,-0.18833 -0.24684,-0.25263 -0.16518,-0.10771 -0.36084,-0.16044 -0.5333,-0.25605 -0.42131,-0.28532 -0.20846,-0.15599 -0.63707,-0.39045 -0.48694,-0.23626 -0.925743,-0.56164 -1.406676,-0.80779 -0.109252,-0.0559 -0.222385,-0.10391 -0.333577,-0.15587 -0.525772,-0.14201 -1.050189,-0.30365 -1.588135,-0.39567 -0.309173,-0.0529 -0.508039,-0.0601 -0.817837,-0.0827 -0.372901,-0.0359 -0.751843,-0.0564 -1.125982,-0.0211 -0.09027,0.009 -0.177673,0.0365 -0.267161,0.0511 -0.07623,0.0124 -0.199511,-0.0412 -0.229772,0.0299 -0.0701,0.16462 -0.0076,0.35777 -0.01148,0.53665 0,0 0.502156,1.52036 0.502156,1.52036 v 0 c 0.112411,0.17306 0.18909,0.37552 0.337232,0.51919 0.05119,0.0496 0.142672,0.006 0.213416,0.0148 0.330414,0.0418 0.655468,0.1279 0.991394,0.13029 0.44646,0.0715 0.88071,0.15735 1.309661,0.30333 0.09161,0.0312 0.185698,0.0571 0.272851,0.0991 0.05567,0.0269 0.101468,0.0706 0.152202,0.10594 0.54302,0.29621 1.075177,0.61458 1.607008,0.93039 0.0845,0.0615 0.1684,0.12369 0.25337,0.18446 0.0789,0.0564 0.18256,0.0878 0.23827,0.1672 0.0297,0.0423 -0.0363,0.10845 -0.0127,0.15442 0.0374,0.073 0.12252,0.10937 0.17854,0.16927 0.14759,0.1578 0.24974,0.30675 0.37905,0.481 0.0434,0.086 0.0793,0.17617 0.1302,0.25797 0.13706,0.2205 0.31415,0.41413 0.45429,0.63268 0.0574,0.0896 0.0982,0.18905 0.15457,0.27932 0.53456,0.85636 -0.12329,-0.28222 0.38368,0.61223 0.22834,0.34261 0.15441,0.2146 0.35268,0.582 0.0482,0.0894 0.10627,0.17449 0.14223,0.26948 0.0333,0.088 0.0307,0.18702 0.064,0.2751 0.0404,0.10715 0.10362,0.20426 0.15543,0.30638 0.0421,0.11281 0.0841,0.22562 0.1262,0.33843 0.25143,0.79326 0.433312,1.60998 0.494582,2.44156 0.1148,1.21972 -0.0772,-0.676 0.12097,0.75498 0.0163,0.11779 0.013,0.23749 0.0177,0.35631 0.0136,0.3448 0.0131,0.68894 -0.0267,1.03236 0.0419,0.90901 -10e-4,0.49976 0.23837,-1.15921 0.0167,-0.11544 -0.0289,0.23156 -0.0476,0.34668 -0.0191,0.11684 -0.0458,0.23233 -0.0658,0.34901 -0.0224,0.13004 -0.0315,0.26253 -0.0614,0.39105 -0.0257,0.11049 -0.0699,0.21585 -0.10483,0.32377 -0.11311,0.34959 -0.23252,0.69167 -0.395022,1.02218 -0.17086,0.34753 -0.10804,0.16872 -0.25327,0.48808 -0.0336,0.0738 -0.0621,0.14977 -0.0931,0.22465 -0.19959,0.40479 -5.3e-4,0.0125 -0.20829,0.39003 -0.11449,0.20795 -0.21865,0.43117 -0.36168,0.62206 -0.0506,0.0676 -0.11177,0.12655 -0.16765,0.18983 -0.33397,0.44726 -0.0173,0.0553 -0.4135,0.45559 -0.0841,0.0849 -0.15056,0.18722 -0.24072,0.26564 -0.1096,0.0953 -0.24226,0.16111 -0.35509,0.2526 -0.10775,0.0874 -0.20351,0.18857 -0.30527,0.28285 -0.11443,0.0879 -0.22886,0.17585 -0.34329,0.26377 -0.937589,0.62231 0.0642,-0.0287 -0.895811,0.5529 -0.33963,0.20575 -0.66421,0.44075 -1.00733,0.64063 -0.121671,0.0709 -0.249661,0.1303 -0.374494,0.19545 -0.380013,0.19787 -0.765368,0.40354 -1.177544,0.52968 -0.110453,0.0338 -0.225888,0.0488 -0.337534,0.0784 -0.589015,0.1563 -0.04633,0.05 -0.669991,0.15505 -0.163896,0.0349 -0.326747,0.0751 -0.491694,0.10465 -0.656979,0.11765 -1.331925,0.14258 -1.997046,0.11157 -0.288811,-0.0221 -0.576889,-0.0557 -0.866259,-0.0686 -0.121843,-0.005 -0.906994,-0.005 -1.031025,-0.0263 -0.309904,-0.0534 -0.583798,-0.25548 -0.910429,-0.24736 -0.150114,-0.0428 -0.304594,-0.0725 -0.450342,-0.12831 -0.133376,-0.0511 -0.255691,-0.12741 -0.383453,-0.19128 -0.493744,-0.24681 -0.970163,-0.52156 -1.422556,-0.83912 0.424482,0.28167 0.84995,0.56187 1.27345,0.84503 0.118227,0.079 -0.238323,-0.15527 -0.357618,-0.2327 -0.115499,-0.075 -0.2369,-0.14147 -0.346769,-0.22446 -0.12302,-0.0929 -0.22983,-0.20582 -0.35026,-0.30209 -0.20706,-0.16552 -0.438518,-0.29935 -0.633122,-0.48126 -0.432109,-0.39076 -0.140102,-0.11783 -0.554244,-0.52783 -0.201334,-0.19931 -0.366863,-0.3299 -0.512833,-0.57601 -0.14178,-0.23905 -0.218097,-0.51281 -0.356463,-0.75375 -0.316931,-0.86303 -0.489524,-1.77073 -0.528839,-2.6899 -0.03638,-0.92507 -0.04668,-1.85158 0.04309,-2.7745 0.07049,-0.75646 0.147021,-1.56703 0.309663,-2.30769 0.04333,-0.19733 0.107058,-0.38962 0.158253,-0.58506 0.06531,-0.24933 0.127502,-0.49947 0.191254,-0.7492 0.07923,-0.25326 0.139448,-0.51327 0.237688,-0.75979 0.08383,-0.21033 0.391152,-0.81619 0.306655,-0.60612 -0.115798,0.28788 -0.388183,0.53015 -0.400804,0.84018 -0.0088,0.21607 0.255019,-0.34939 0.387773,-0.52009 0.356725,-0.4587 0.469932,-0.57492 0.853258,-1.01235 0.394509,-0.38079 0.533445,-0.53699 0.960046,-0.86635 0.705884,-0.545 1.517784,-0.9303 2.371775,-1.18042 0.693748,-0.19448 1.388594,-0.38507 2.098688,-0.51238 0.5358,-0.0961 0.920133,-0.13573 1.46032,-0.18008 0.217824,-0.0179 0.436142,-0.0291 0.654214,-0.0436 0.774576,-0.0779 0.193297,-0.009 0.939742,-0.12335 0.266078,-0.0406 0.54115,-0.0629 0.804508,-0.12118 0.03577,-0.008 0.06954,-0.0231 0.104304,-0.0346 z" />
  </g>
</svg>
