<?xml version="1.0" encoding="UTF-8" standalone="no"?>
<!-- Created with Inkscape (http://www.inkscape.org/) -->

<svg
   width="20.732809mm"
   height="20.54114mm"
   viewBox="0 0 20.732809 20.54114"
   version="1.1"
   id="svg1"
   sodipodi:docname="druid-elements.svg"
   xmlns:inkscape="http://www.inkscape.org/namespaces/inkscape"
   xmlns:sodipodi="http://sodipodi.sourceforge.net/DTD/sodipodi-0.dtd"
   xmlns="http://www.w3.org/2000/svg"
   xmlns:svg="http://www.w3.org/2000/svg">
  <sodipodi:namedview
     id="namedview1"
     pagecolor="#ffffff"
     bordercolor="#000000"
     borderopacity="0.25"
     inkscape:showpageshadow="2"
     inkscape:pageopacity="0.0"
     inkscape:pagecheckerboard="0"
     inkscape:deskcolor="#d1d1d1"
     inkscape:document-units="mm"
     inkscape:zoom="1.6390042"
     inkscape:cx="113.48354"
     inkscape:cy="646.12403"
     inkscape:window-width="2400"
     inkscape:window-height="1566"
     inkscape:window-x="2869"
     inkscape:window-y="483"
     inkscape:window-maximized="1"
     inkscape:current-layer="layer1" />
  <defs
     id="defs1" />
  <g
     inkscape:label="Layer 1"
     inkscape:groupmode="layer"
     id="layer1"
     transform="translate(-125.27526,-85.066427)">
    <circle
       id="path47"
       style="fill:#ffd5d5;stroke:#000000;stroke-width:0.264583"
       cx="128.77248"
       cy="93.581085"
       r="0.011660346" />
    <path
       style="fill:#000000;stroke-width:0.264583"
       id="path53"
       d="m 144.35748,94.154509 c -0.0569,-0.5051 -0.156,-0.99915 -0.28118,-1.49152 -0.13476,-0.70909 -0.4064,-1.37469 -0.67288,-2.04122 -0.21885,-0.46593 -0.44522,-0.97749 -0.77287,-1.37999 -0.0895,-0.10998 -0.19931,-0.20191 -0.29446,-0.30706 -0.0969,-0.10705 -0.18756,-0.21952 -0.28134,-0.32928 -1.08101,-1.06449 0.57707,0.54493 -0.59291,-0.51046 -0.0904,-0.0816 -0.16176,-0.18222 -0.24672,-0.26947 -0.23828,-0.24467 -0.49717,-0.46835 -0.75781,-0.68838 -0.81867,-0.65537 -1.75724,-0.89745 -2.76416,-1.32094 -0.33826,-0.14227 -0.69261,-0.24479 -1.03824,-0.36717 -0.63165,-0.18965 -1.28067,-0.31769 -1.93703,-0.37853 -0.45378,-0.0192 -0.90137,0.0297 -1.34101,0.1445 -0.24814,0.0648 -0.49039,0.15035 -0.73623,0.22339 -0.17502,0.094 -0.37904,0.0951 -0.56155,0.16364 -0.43739,0.16437 -0.86279,0.42795 -1.24602,0.69174 -0.5747,0.37707 -1.04451,0.89145 -1.50507,1.39648 -0.092,0.11646 -0.41774,0.39297 -0.2759,0.34937 0.30928,-0.0951 0.56113,-0.32498 0.8215,-0.51707 0.17061,-0.12587 -0.40578,0.16318 -0.55109,0.31757 -0.33982,0.36107 -1.12868,0.77303 -0.87793,1.20078 0.2351,0.40107 0.69138,-0.62174 1.0317,-0.93846 0.099,-0.0921 -0.20506,0.17637 -0.30759,0.26455 -0.13737,0.13774 -0.37203,0.3661 -0.49539,0.51742 -0.0504,0.0619 -0.0895,0.13212 -0.13425,0.19822 -0.11393,0.16843 -0.22794,0.33384 -0.33117,0.50905 -0.0396,0.0926 -0.2634,0.40599 -0.25741,0.49686 0.003,0.0508 0.0959,0.073 0.12384,0.0838 0.073,-5.3e-4 -0.0473,0.0717 -0.021,0.0833 0.0118,0.005 0.23063,0.0314 0.25022,0.035 0.0143,0.0724 -0.0105,-0.0844 -0.0416,0.0438 -0.003,0.0129 0.0432,0.0108 0.0342,0.0206 -0.51036,0.53629 -1.02072,1.07258 -1.53107,1.60887 0.004,0.0378 0.004,0.0132 -0.0214,0.0708 -0.0779,0.0711 -0.0818,0.17578 -0.11781,0.26735 -0.007,0.008 -0.013,0.0313 -0.0212,0.0243 -0.0125,-0.0107 -0.0213,-0.0403 -0.007,-0.0486 0.76642,-0.45636 1.51501,-0.95017 2.3222,-1.3298 0.10049,-0.0473 0.22704,0.30437 0.22215,0.17985 -0.16819,-0.35606 -0.31684,-0.71865 -0.45668,-1.08655 -0.056,-0.24296 -0.14684,-0.47741 -0.2094,-0.71823 -0.0349,-0.13449 -0.0346,-0.26975 -0.0456,-0.40686 0.64212,0.93647 0.0626,0.001 -2.34054,1.76841 -0.0335,0.0246 0.0182,0.0811 0.0277,0.12151 0.0591,0.24915 0.10215,0.49107 0.1324,0.74564 0.13668,1.31937 -0.063,-0.55619 0.0779,0.61712 0.0319,0.2657 -0.002,0.29789 0.10577,0.54605 0.12972,0.29772 0.18085,0.29901 0.42201,0.53798 0.42534,0.19621 0.44463,0.2758 0.87333,0.25851 0.11051,-0.004 0.22173,-0.0223 0.32699,-0.0562 0.37779,-0.12185 0.70013,-0.36904 1.03394,-0.57455 0.8405,-0.56315 -0.28215,0.1813 0.59699,-0.37586 0.0421,-0.0267 0.37062,-0.25911 0.4298,-0.29265 0.16559,-0.0939 0.34204,-0.16715 0.51292,-0.25102 0.32827,-0.19078 0.19179,-0.0931 0.51665,-0.37076 0.0585,-0.05 0.12114,-0.096 0.17319,-0.15268 0.0504,-0.0549 0.0884,-0.12017 0.13253,-0.18026 0,0 -1.70604,-2.09083 -1.70604,-2.09083 v 0 c 0.0946,-0.11506 -0.005,-0.0222 0.10668,-0.0622 0.15195,-0.0544 0.0856,-0.10068 0.16125,-0.0129 -0.0193,0.19778 -0.0942,0.24441 -0.25523,0.3717 -0.0747,0.059 -0.15379,0.11258 -0.22663,0.17391 -0.63022,0.53064 0.28244,-0.18704 -0.47383,0.39723 -0.0887,0.071 -0.1738,0.14663 -0.26598,0.213 -0.30831,0.22194 -0.22132,0.0892 -0.39763,0.32227 -0.0201,0.0266 -0.0529,0.0512 -0.0535,0.0846 -0.002,0.13061 0.35371,0.17863 0.29324,0.25999 0.0307,0.0304 0.0563,0.0671 0.0922,0.0912 0.007,0.005 0.015,-0.0111 0.015,-0.0192 -2e-4,-0.0477 -0.008,-0.0953 -0.0157,-0.14231 -0.0128,-0.0757 -0.0365,-0.14945 -0.0467,-0.22553 -0.0255,-0.18975 -0.0159,-0.38332 -0.0566,-0.57155 -0.0579,-0.33397 -0.10941,-0.67091 -0.21601,-0.99391 -0.0327,-0.099 -0.015,-0.33159 -0.11145,-0.29211 -0.8957,0.36654 -1.73933,0.85869 -2.5531,1.38253 -0.0631,0.0406 0.0506,0.1414 0.0758,0.21211 0.0315,0.15321 0.0919,0.2974 0.13365,0.44804 0.0618,0.22298 0.11913,0.44697 0.20988,0.66124 0.1352,0.42664 0.31057,0.83668 0.51302,1.23583 0.0332,0.0656 0.0601,0.13469 0.0995,0.19671 0.0435,0.0684 0.32562,0.39917 0.36581,0.38277 2.10068,-0.85695 2.4365,-0.45837 2.38431,-1.37016 0.0412,-0.0382 0.10701,-0.0553 0.12474,-0.11396 0.78401,-0.56324 -2.13816,1.83815 -1.30881,1.46033 0.22532,-0.0216 0.38766,-0.0853 0.55365,-0.24426 0.12773,-0.0875 0.24047,-0.15503 0.34886,-0.26714 0.13489,-0.13955 0.18752,-0.33642 0.2813,-0.50121 0.0848,-0.16359 0.16423,-0.329 0.25465,-0.48967 0.0362,-0.0643 0.0822,-0.12362 0.11044,-0.19174 0.0475,-0.11451 0.0332,-0.24885 0.0866,-0.36172 0.0649,-0.79933 0.006,-0.59407 1.37949,-1.589 0.27398,-0.19846 -0.3906,0.5525 -0.5859,0.82875 -0.0942,-0.005 -0.34712,0.0543 -0.28257,-0.0145 0.73028,-0.77779 0.66938,-0.75729 1.14971,-0.88356 0.28536,-0.33292 0.5824,-0.65662 0.95527,-0.89525 0.15225,-0.0878 0.30019,-0.18319 0.45454,-0.26728 0.36037,-0.19632 0.76096,-0.3235 1.14554,-0.4602 0.40732,-0.1118 0.81503,-0.18771 1.23558,-0.22558 0.12687,-0.0114 0.25303,-0.0376 0.38041,-0.0365 0.0864,8e-4 0.17049,0.028 0.25574,0.0419 0.56904,0.10031 1.12128,0.27381 1.67193,0.44672 0.11346,0.0348 0.22826,0.0655 0.34038,0.10442 0.1146,0.0398 0.22573,0.0889 0.33934,0.1314 1.45098,0.54272 -2.2422,-0.88754 -0.98286,-0.49306 0.0836,0.0262 0.16644,0.055 0.24966,0.0824 0.296,0.14343 0.52823,0.29435 0.79317,0.49083 0.10218,0.0758 0.21278,0.14161 0.30554,0.22866 0.19125,0.17947 0.31018,0.42903 0.5392,0.57302 0.46692,0.42922 0.1155,0.0776 0.51849,0.56176 0.2726,0.32753 0.57388,0.63811 0.75587,1.03041 0.28558,0.59659 0.47622,1.23274 0.70575,1.85218 0.13606,0.42746 0.27095,0.85735 0.33824,1.30205 z" />
    <path
       style="fill:#000000;stroke-width:0.264583"
       id="path54"
       d="m 125.9571,95.628239 c -0.0266,0.51882 -0.0107,1.03867 0.0137,1.55722 0.0358,0.56137 0.1304,1.11534 0.27413,1.65871 0.1873,0.60594 0.34394,1.222841 0.55713,1.820291 0.1571,0.35808 0.31434,0.72271 0.52291,1.05495 0.10686,0.17023 0.21997,0.30308 0.3449,0.45986 0.14201,0.13128 0.24257,0.29832 0.37261,0.43975 0.0614,0.0668 0.13226,0.1242 0.19749,0.18724 0.19356,0.18705 0.28392,0.29538 0.50662,0.45426 0.0813,0.058 0.17142,0.10246 0.25713,0.15369 0.27563,0.17679 0.55161,0.37561 0.85142,0.51167 0.0893,0.0405 0.18776,0.0574 0.27826,0.0951 0.10772,0.0448 0.21022,0.10124 0.31533,0.15187 0.75156,0.30591 1.50312,0.61182 2.25468,0.91774 0.13005,0.0347 0.26113,0.0658 0.39013,0.10419 0.30893,0.092 0.42501,0.15573 0.73887,0.22687 0.1303,0.0295 0.2639,0.0423 0.39491,0.0685 0.57711,0.11533 0.0684,0.0509 0.68028,0.10939 0.34415,0.006 0.68621,0.0143 1.0301,5.3e-4 0.0732,-0.003 0.14691,0 0.21956,-0.009 0.21075,-0.0272 0.35779,-0.078 0.56211,-0.13665 0.0489,-0.0325 0.0931,-0.0734 0.14662,-0.0975 0.26201,-0.11786 0.38248,-0.1085 0.66015,-0.2035 0.10201,-0.0349 0.19862,-0.084 0.29809,-0.12558 0.4962,-0.20756 0.25053,-0.0859 0.69321,-0.33458 0.80631,-0.39164 -0.0466,0.047 0.60493,-0.35262 0.97584,-0.59852 -0.37317,0.29568 0.69018,-0.39439 0.28888,-0.18748 0.42179,-0.29639 0.69437,-0.50361 0.0841,-0.0813 0.16543,-0.16558 0.25232,-0.2439 0.33877,-0.30535 0.71275,-0.58397 0.99968,-0.94318 0.46371,-0.58054 0.9143,-1.17144 1.37144,-1.75717 0.0584,-0.11251 0.11523,-0.22583 0.17514,-0.33753 0.10311,-0.192221 0.23479,-0.412041 0.33091,-0.608991 0.13526,-0.27713 0.23711,-0.56912 0.35032,-0.85552 0.1711,-0.34108 0.0478,-0.0642 0.17829,-0.46734 0.0214,-0.0661 0.055,-0.12815 0.0725,-0.19538 0.0553,-0.21201 0.0829,-0.44069 0.0971,-0.65861 0.0216,-0.15764 -0.008,-0.31435 -0.0136,-0.47118 -5.3e-4,-0.0139 0.007,-0.0275 0.005,-0.0414 -0.0171,-0.19247 -0.0164,-0.0182 -0.0159,-0.10262 0.0162,-0.0563 -0.007,-0.0979 -0.0157,-0.15137 -0.01,-0.0575 -8e-4,-0.11671 -5.3e-4,-0.17506 -0.0324,-0.10373 0.007,-0.22504 -0.0151,-0.32841 -0.0428,-0.19649 -0.16128,-0.37511 -0.26106,-0.54468 -0.27648,-0.32058 -0.63637,-0.57623 -1.08106,-0.51304 -0.17779,0.0253 -0.3038,0.1603 -0.42935,0.27268 -0.45814,0.3973 -0.97794,0.71274 -1.50544,1.00785 -1.06725,0.59933 0.38754,-0.20426 -0.55162,0.27628 -0.0841,0.0431 -0.15937,0.10216 -0.24351,0.14521 -0.0195,0.01 -0.22605,0.0645 -0.24168,0.13109 -0.005,0.0231 0.0368,0.0299 0.0553,0.0448 1.14212,0.69236 0.25955,0.0141 1.08978,1.14189 0.0184,0.025 0.0553,-0.0283 0.0813,-0.0452 0.21617,-0.14088 0.43178,-0.28121 0.64419,-0.42819 0.085,-0.0755 0.16648,-0.15518 0.25498,-0.22656 0.0946,-0.0763 0.19381,-0.14672 0.29367,-0.21596 0.0998,-0.0692 0.40119,-0.27322 0.30499,-0.19915 -0.44139,0.33989 -0.89386,0.66514 -1.34123,0.99711 -0.0733,0.0544 0.1444,-0.1117 0.21894,-0.16434 0.0578,-0.0408 0.11853,-0.0772 0.17779,-0.11579 0.0245,-0.0273 0.25006,-0.12556 0.1627,-0.21209 -0.0334,-0.0331 -0.0777,-0.053 -0.11405,-0.0828 -0.045,-0.0369 -0.0866,-0.0776 -0.1299,-0.11645 0.36749,0.5404 0.68131,1.11748 0.98538,1.69569 0.11121,0.23614 0.2515,0.45496 0.35353,0.69542 0.0233,0.0548 0.0355,0.11455 0.0645,0.16648 0.0221,0.0394 0.11546,0.13131 0.15209,0.16867 0.29285,0.192371 0.42761,0.148431 0.91956,0.270711 0,0 0.68266,-2.102651 0.68266,-2.102651 v 0 c 0.1694,0.0494 0.72278,0.47133 0.77242,0.15903 -0.0103,-0.0361 -0.0333,-0.12248 -0.0503,-0.1479 -0.28051,-0.42004 0.13683,0.32399 -0.19947,-0.2577 -0.0439,-0.0759 -0.0782,-0.15699 -0.11981,-0.23415 -0.0504,-0.0933 -0.10409,-0.1848 -0.15613,-0.27721 -0.25455,-0.44621 -0.50571,-0.89378 -0.74799,-1.3468 -0.0615,-0.11492 -0.11492,-0.23416 -0.18015,-0.34699 -0.0558,-0.0966 -0.12168,-0.18691 -0.18253,-0.28037 -0.20928,-0.24357 -0.29386,-0.37829 -0.58972,-0.54977 -0.35784,-0.20741 -0.75442,-0.17229 -1.10861,0.009 -0.85758,0.52771 -1.4336,0.98303 -2.35835,1.6796 -0.19337,0.14565 -0.36277,0.32103 -0.55266,0.47118 -0.10485,0.0829 -0.21369,0.16067 -0.32053,0.241 -0.25435,0.25316 -0.50011,0.51185 -0.70251,0.8101 -0.0528,0.0778 -0.15908,0.14895 -0.14514,0.24196 0.15431,1.02941 0.25742,0.89179 1.01678,1.37249 0.0666,7.9e-4 0.13385,0.012 0.19981,0.003 0.18199,-0.0257 0.20192,-0.0924 0.35878,-0.19637 0.0688,-0.0456 0.14374,-0.0814 0.21289,-0.12644 0.66525,-0.43346 -0.10745,0.0355 0.58054,-0.37354 0.53876,-0.32478 1.10425,-0.60202 1.64763,-0.9187 0.027,-0.0165 0.3466,-0.16284 0.27738,-0.26176 -0.0302,-0.0432 -0.0851,-0.0624 -0.1285,-0.0923 -0.44395,-0.30607 -0.23802,-0.11358 -0.56859,-0.50237 -0.0211,-0.0434 -0.0421,-0.0869 -0.0633,-0.13031 -0.0227,-0.0463 -0.0443,-0.0869 -0.0447,-0.0865 -0.003,0.002 0.0505,0.17404 0.0242,0.19215 0.006,0.17018 -0.0178,0.33554 0.0211,0.50265 0.024,0.12045 0.0383,0.23499 0.006,0.35976 -0.0264,0.11532 -0.0394,0.23356 -0.0685,0.34822 -0.0155,0.0612 -0.0443,0.11841 -0.0618,0.17908 -0.0235,0.0814 -0.0349,0.16604 -0.0611,0.24659 -0.0232,0.0716 -0.0576,0.13897 -0.0864,0.20845 -0.0274,0.0893 -0.0548,0.17856 -0.0822,0.26783 -0.23889,0.52427 -0.53511,1.033051 -0.90788,1.473131 0.32724,-0.41389 0.64983,-0.831501 0.98172,-1.241671 0.0605,-0.0747 -0.10975,0.15794 -0.16722,0.23503 -0.26452,0.354891 -0.55893,0.695581 -0.91911,0.956101 -0.34012,0.29054 -0.74671,0.6466 -1.14374,0.85343 -0.13299,0.0693 -0.2768,0.11581 -0.41177,0.18115 -0.10935,0.0529 -0.21371,0.11561 -0.32056,0.17341 -0.2248,0.0946 -0.44394,0.20364 -0.67362,0.28573 -0.12141,0.0434 -0.24724,0.0733 -0.3704,0.1114 -0.44862,0.13898 -0.89891,0.26765 -1.36802,0.32182 -0.72739,0.16204 -1.46957,0.34714 -2.21723,0.21104 -0.25202,-0.0348 -0.5068,-0.053 -0.75624,-0.10302 -0.11499,-0.0231 -0.22568,-0.064 -0.33919,-0.0935 -0.38021,-0.0988 -0.7713,-0.16847 -1.12353,-0.35223 0.52343,0.21947 1.04897,0.434 1.5703,0.65842 0.096,0.0413 -0.19969,-0.064 -0.29403,-0.10903 -0.10778,-0.0515 -0.2036,-0.12547 -0.31018,-0.17939 -0.0867,-0.0439 -0.18056,-0.0721 -0.26849,-0.11337 -0.18177,-0.0854 -0.35224,-0.1938 -0.53875,-0.26974 -0.0931,-0.0636 -0.18438,-0.12983 -0.27927,-0.19068 -0.10113,-0.0649 -0.33802,-0.19084 -0.43526,-0.26801 -0.22778,-0.18078 -0.42908,-0.40591 -0.60989,-0.63155 -0.32321,-0.42467 -0.64103,-0.8571 -0.84282,-1.355181 -0.251,-0.56303 -0.47075,-1.136 -0.64066,-1.72949 -0.15026,-0.50008 -0.27201,-1.00517 -0.31165,-1.52769 -0.0539,-0.43393 -0.076,-0.87088 -0.009,-1.30523 z" />
    <path
       style="fill:#000000;stroke-width:0.264583"
       id="path55"
       d="m 145.14732,97.200589 c -0.13519,-0.12243 -0.0835,-0.0397 -0.10358,-0.27383 -0.004,-0.0485 -0.0233,-0.0979 -0.0125,-0.14535 0.0536,-0.23488 0.17986,-0.36607 0.41135,-0.42185 0.009,-0.007 0.0294,-0.01 0.0268,-0.0206 -0.009,-0.0365 -0.022,-0.11623 -0.0548,-0.0981 -0.81186,0.44918 -1.64313,0.87989 -2.37919,1.44477 -0.0129,0.01 0.19455,0.61604 0.19559,0.6199 0.017,0.0628 0.0217,0.12827 0.0326,0.19241 0.1738,0.38308 0.23681,0.80172 0.37815,1.19565 0.0405,0.11283 0.0714,0.23296 0.14008,0.331231 0.14819,0.21211 0.30364,0.23866 0.526,0.32938 0,0 1.48859,-0.766301 1.48859,-0.766301 v 0 c 0.11067,-0.24716 0.21047,-0.40124 0.21167,-0.68309 5.3e-4,-0.11924 -0.037,-0.23574 -0.0629,-0.35213 -0.0883,-0.39753 -0.23861,-0.78167 -0.27059,-1.19111 -0.0445,-0.16473 -0.10302,-0.32631 -0.13351,-0.49419 -0.013,-0.0715 -0.0167,-0.14841 0.004,-0.21802 0.006,-0.0204 0.082,-0.0183 0.0636,-0.008 -2.19593,1.28423 -2.70451,0.80556 -2.31945,1.43362 0.0577,0.0549 0.0988,0.13584 0.173,0.16463 0.33066,0.12828 0.37494,0.006 0.68743,-0.0359 0.0904,-0.0122 0.18284,0.006 0.27374,-0.002 0.43718,-0.0384 0.14671,-0.0913 0.4969,0.0106 z" />
    <path
       style="fill:#000000;stroke-width:0.264583"
       id="path56"
       d="m 125.27527,89.068889 c 0.26487,0.66049 0.37759,1.38087 0.69764,2.02058 0.0687,0.13724 0.16355,0.25971 0.24532,0.38957 0,0 1.67334,-1.32746 1.67334,-1.32746 v 0 c -0.0276,-0.16217 -0.045,-0.32643 -0.0829,-0.4865 -0.15918,-0.67182 -0.46666,-1.3048 -0.57387,-1.99061 z" />
    <path
       style="fill:#000000;stroke-width:0.264583"
       id="path57"
       d="m 130.23124,92.672619 c 0.10734,-0.004 0.21614,0.007 0.32203,-0.0109 0.34912,-0.0593 0.66317,-0.26292 0.96695,-0.43033 0.42592,-0.23472 0.21428,-0.11119 0.61087,-0.35416 0.29419,-0.17172 0.59301,-0.40952 0.91587,-0.52847 0.0723,-0.0267 0.25488,-0.0517 0.32922,-0.0635 0.17813,-0.0671 0.12444,-0.0107 -0.0598,-0.2257 0,0 -1.08353,-0.93754 -1.08353,-0.93754 v 0 c -0.43954,-0.17941 -0.24592,-0.17826 -0.56736,-0.12459 -0.5444,0.22203 -1.09318,0.43254 -1.59124,0.75127 -0.28523,0.18862 -0.55896,0.38784 -0.82066,0.60857 -0.11307,0.0954 -0.27658,0.2191 -0.3282,0.37281 -0.0193,0.0575 -0.004,0.12132 -0.006,0.18198 z" />
  </g>
</svg>
