<?xml version="1.0" encoding="UTF-8" standalone="no"?>
<!-- Created with Inkscape (http://www.inkscape.org/) -->

<svg
   width="25.256016mm"
   height="23.690948mm"
   viewBox="0 0 25.256016 23.690948"
   version="1.1"
   id="svg1"
   sodipodi:docname="druid-elements.svg"
   xmlns:inkscape="http://www.inkscape.org/namespaces/inkscape"
   xmlns:sodipodi="http://sodipodi.sourceforge.net/DTD/sodipodi-0.dtd"
   xmlns="http://www.w3.org/2000/svg"
   xmlns:svg="http://www.w3.org/2000/svg">
  <sodipodi:namedview
     id="namedview1"
     pagecolor="#ffffff"
     bordercolor="#000000"
     borderopacity="0.25"
     inkscape:showpageshadow="2"
     inkscape:pageopacity="0.0"
     inkscape:pagecheckerboard="0"
     inkscape:deskcolor="#d1d1d1"
     inkscape:document-units="mm"
     inkscape:zoom="1.6390042"
     inkscape:cx="113.48354"
     inkscape:cy="646.12403"
     inkscape:window-width="2400"
     inkscape:window-height="1566"
     inkscape:window-x="2869"
     inkscape:window-y="483"
     inkscape:window-maximized="1"
     inkscape:current-layer="layer1" />
  <defs
     id="defs1" />
  <g
     inkscape:label="Layer 1"
     inkscape:groupmode="layer"
     id="layer1"
     transform="translate(-79.242449,-111.2518)">
    <path
       style="fill:#000000;stroke-width:0.264583"
       id="path20"
       d="m 38.1607,107.73633 c 0.235805,0.0338 0.470694,0.0748 0.707414,0.10139 0.262229,0.0295 1.872496,0.16182 2.057641,0.17818 1.438701,0.12715 2.877595,0.24965 4.316841,0.37081 2.145006,0.17008 4.287329,0.37128 6.433399,0.52739 0.539705,0.0393 1.078778,0.0897 1.619324,0.11489 0.640736,0.0298 1.282428,0.0333 1.923643,0.0499 2.089748,-0.0273 4.182647,-0.004 6.27131,-0.0932 0.757277,-0.0322 1.512861,-0.097 2.269834,-0.1356 1.497031,-0.0764 3.361015,-0.13316 4.841724,-0.18379 2.52671,0.0707 5.053822,-0.0541 7.580537,-0.0163 1.43781,0.0215 2.873724,0.1185 4.31142,0.14657 0.645528,0.0126 1.29128,0.008 1.936919,0.0113 0.59214,-1.1e-4 1.184349,0.009 1.776421,-2.7e-4 0.581255,-0.009 1.161933,-0.0426 1.743167,-0.0525 5.778704,-0.0986 -2.360194,0.0785 3.219606,0.006 3.073456,-0.0401 0.07048,-0.0932 3.039899,-0.011 1.319366,0.0113 2.63371,0.15757 3.951102,0.20525 0.407498,0.0147 0.815565,0.003 1.223248,0.0111 4.916881,0.0997 -2.465229,-0.0166 2.329598,0.0547 0.361743,0.002 0.723593,0.0153 1.085213,0.006 0.3486,-0.009 0.69583,-0.0497 1.04436,-0.061 0.31339,-0.0101 0.62717,0.004 0.94064,-0.003 0.92855,-0.02 1.85871,-0.0667 2.78636,-0.11139 0.31392,-0.0194 0.62859,-0.0289 0.94175,-0.0581 0.32915,-0.0306 0.65485,-0.0937 0.98427,-0.12124 1.084,-0.0907 2.18405,-0.0618 3.27107,-0.0832 0.62065,-0.008 1.21388,-0.20929 1.82423,-0.28763 0.50096,-0.0643 1.01984,-0.0694 1.52416,-0.0973 0.58749,-0.002 1.1629,-0.0799 1.73508,-0.20431 0.144,-0.0222 0.2977,-0.0771 0.44541,-0.0426 0.0319,0.007 0.1221,0.045 0.0897,0.04 -1.10282,-0.16754 -2.20295,-0.35229 -3.30443,-0.52843 0.0325,0.007 0.0691,0.004 0.0975,0.0211 0.30751,0.18594 0.38315,1.08869 0.43136,1.39171 0.16911,1.4235 0.12145,2.86382 0.0576,4.29266 -0.15016,2.17127 -0.29562,4.34336 -0.49102,6.51109 -0.2067,2.06478 -0.31959,4.13754 -0.51808,6.2031 -0.15199,1.53703 -0.25867,3.0772 -0.41726,4.61358 -0.15176,1.30228 -0.25718,2.60551 -0.32413,3.9147 -0.008,0.92624 -0.0228,1.85122 -0.0729,2.77628 -0.0145,0.63522 -0.089,1.26827 -0.16233,1.89914 -0.0473,0.35745 -0.0271,0.55556 -0.22663,0.85682 -0.11016,0.11139 -0.20643,0.20468 -0.34467,0.27814 -0.14125,0.0708 -0.28394,0.13291 -0.4361,0.17651 -0.0703,0.0202 -0.28216,0.0776 -0.21219,0.0562 1.07152,-0.32734 2.14463,-0.64941 3.21695,-0.97412 -1.30356,0.33759 -2.6618,0.37167 -3.99951,0.4455 -1.19484,0.12463 -2.39111,0.015 -3.5865,0.0124 -0.62219,-0.001 -1.24395,0.0339 -1.86607,0.0429 -1.84375,0.006 -3.67957,-0.17735 -5.522237,-0.18882 -2.462758,-0.0817 -4.927478,-0.0268 -7.391133,-0.0286 -3.1085,-0.10757 -6.216856,-0.1812 -9.327221,-0.18848 -3.050506,-0.01 -6.099598,0.0984 -9.148334,0.18771 -2.78656,0.0695 -5.569781,0.22016 -8.3547,0.33291 -2.733852,0.0794 -5.467226,0.15856 -8.199874,0.27267 -2.442998,0.12654 -4.887714,0.1938 -7.333578,0.22373 -2.043615,0.0566 -4.087926,0.0811 -6.131906,0.12425 -1.416458,0.0191 -2.833873,0.0524 -4.249666,-0.008 -0.720273,-0.0402 -1.440247,-0.085 -2.159376,-0.14223 -0.149831,0.007 -0.298561,-0.0337 -0.446934,-0.0386 0.05123,0.26172 0.116104,0.0124 0.177181,-0.0937 0.290893,-0.29271 0.463875,-0.62794 0.60407,-1.01224 0.237254,-0.77324 0.325604,-1.5833 0.417859,-2.38401 0.137575,-1.12004 0.286562,-2.23755 0.334587,-3.36549 0.08792,-1.70205 0.03655,-3.40264 -0.0736,-5.10173 -0.119796,-1.75767 -0.248502,-3.5149 -0.339381,-5.27435 -0.03664,-1.76009 -0.02455,-3.52053 -0.04846,-5.28086 -0.0131,-1.39856 0.06487,-2.79654 0.05136,-4.19474 -0.111136,-1.21657 -0.1,-2.43991 -0.104386,-3.66029 0.03256,-0.79744 -0.01672,-1.59621 0.04009,-2.39267 0.03864,-0.1699 0.0016,-0.44085 0.119332,-0.58668 0.02109,-0.0262 0.08668,0.0333 0.09067,0.0362 0.0704,-0.0298 0.149701,-0.13133 0.23128,-0.13297 0.0266,-5.3e-4 0.04523,0.0356 0.07182,0.0348 0.0057,-1.8e-4 0.188394,-0.0777 0.194945,-0.0804 0.02643,-0.0156 0.157231,-0.0954 0.190317,-0.10444 0.227156,-0.062 0.577729,-0.0294 0.810763,-0.0444 0.62752,-0.10109 1.331097,0.10476 1.948482,-0.007 0.08225,-0.0148 0.158445,-0.0533 0.237667,-0.0799 -0.113607,-0.0935 -0.227214,-0.18692 -0.340823,-0.28039 0,0 -1.77214,-0.62543 -1.77214,-0.62543 v 0 c -0.288689,-0.0599 -0.577379,-0.11985 -0.866066,-0.17977 -0.865452,-0.0467 -1.730343,-0.13249 -2.598197,-0.0788 -0.40911,0.0137 -0.781397,0.0296 -1.137674,0.24636 -0.236289,0.11259 -0.406953,0.29119 -0.582729,0.48346 -0.200716,0.44102 -0.272971,0.89768 -0.282771,1.38273 -0.02522,0.89045 -0.05454,1.78033 -0.07022,2.67094 -0.04078,1.25001 0.03594,2.49888 -0.01146,3.7485 0.02897,1.50799 -2.31e-4,3.01468 0.03631,4.52252 0.03169,1.94533 0.0861,3.89087 0.185148,5.83399 0.1212,1.75552 0.258294,3.50991 0.367951,5.26624 0.108053,1.68642 0.156223,3.37909 0.02196,5.066 -0.104815,1.12091 -0.230296,2.23909 -0.378725,3.3551 -0.112244,0.7772 -0.208764,1.56948 -0.508148,2.30184 -0.164907,0.33927 -0.38027,0.64486 -0.543467,0.98417 -0.1,0.27614 -0.112562,0.5257 0.06238,0.7782 0.170572,0.0321 0.350684,0.01 0.522457,0.0307 0.751012,0.0154 1.500233,0.0758 2.250956,0.0999 1.430234,0.0465 2.86022,0.0767 4.29093,0.0111 2.020798,-0.0449 4.04195,-0.0987 6.063351,-0.0922 2.462681,-0.0322 4.92393,-0.10801 7.38355,-0.23792 2.746753,-0.11178 5.493935,-0.20693 8.241479,-0.29668 2.771828,-0.0874 5.541701,-0.22621 8.313568,-0.31308 3.073138,-0.10537 6.146088,-0.23717 9.221621,-0.24015 3.080996,0.008 6.159251,0.11502 9.237885,0.22938 2.445305,0.0758 4.886952,0.0559 7.332755,0.0229 1.82931,0.11851 3.663391,0.22791 5.496782,0.22356 0.35999,-0.007 1.52621,-0.0231 1.89209,-0.0483 2.98446,-0.20509 -0.89329,-0.004 1.86384,-0.18126 0.28941,-0.0186 0.57965,-0.0206 0.86943,-0.0322 0.30244,-0.0121 0.60481,-0.0259 0.90722,-0.0388 1.32094,-0.0697 2.65638,-0.10353 3.95888,-0.34705 1.26361,-0.37385 2.52912,-0.74132 3.79083,-1.12154 0.17814,-0.0537 0.3555,-0.14731 0.50974,-0.25137 0.0812,-0.0548 0.0914,-0.0696 0.15417,-0.13151 0.12013,-0.11329 0.23723,-0.21866 0.29408,-0.3785 0.11081,-0.30489 0.13078,-0.63784 0.1676,-0.95784 0.0529,-0.59798 0.0917,-1.19742 0.1576,-1.79404 0.026,-0.90019 0.0156,-1.80074 0.0496,-2.70075 0.0345,-1.23856 0.14093,-2.47512 0.31887,-3.70161 0.15326,-1.42696 0.30184,-2.85471 0.41818,-4.2852 0.15153,-1.90274 0.28244,-3.80693 0.4352,-5.70958 0.15805,-2.12282 0.30317,-4.24614 0.40675,-6.37247 0.0677,-1.45243 0.1167,-2.90724 -0.0579,-4.35506 -0.068,-0.59571 -0.10319,-1.24945 -0.42429,-1.77288 -2.15201,-0.3717 -2.60976,-0.86259 -4.04288,-0.48917 -0.54815,0.11097 -1.10498,0.14292 -1.66262,0.17345 -0.49731,0.0337 -1.01095,0.10546 -1.50912,0.0993 -0.53362,-0.007 -1.05583,-0.16111 -1.58957,-0.17004 -0.78012,0.009 -1.55934,0.0266 -2.33887,0.0603 -0.30569,0.0132 -0.61089,0.0399 -0.91682,0.0451 -0.30968,0.005 -0.61941,-0.0203 -0.92906,-0.0139 -0.31458,0.007 -0.6283,0.0353 -0.94245,0.053 -0.497,0.022 -1.36235,0.0648 -1.85936,0.0689 -0.29274,0.002 -0.58541,-0.0122 -0.878157,-0.0128 -0.30915,-8e-4 -0.61836,0.0168 -0.927409,0.009 -0.318831,-0.008 -0.636294,-0.048 -0.955096,-0.0573 -0.356957,-0.0104 -0.714214,-10e-4 -1.071322,-0.002 -0.612693,-0.01 -1.709851,-0.0189 -2.315763,-0.0613 -0.37919,-0.0265 -0.755232,-0.0887 -1.134192,-0.11834 -1.304221,-0.10202 -2.615244,-0.1211 -3.921807,-0.17299 -0.495091,-0.0131 -0.99018,-0.0261 -1.485271,-0.0392 -0.472273,-0.0313 -0.943742,-0.0791 -1.416822,-0.094 -0.678397,-0.0213 -2.537214,0.0192 -3.198492,0.0132 -0.552334,-0.005 -1.104358,-0.0279 -1.656525,-0.0423 -0.564774,-0.0148 -1.129533,-0.0301 -1.694299,-0.0452 -0.609655,-0.0239 -1.219105,-0.0538 -1.828967,-0.0717 -1.416081,-0.0417 -2.83346,-0.0341 -4.249229,-0.0853 -2.424451,-0.0877 -4.84678,-0.31436 -7.275878,-0.21778 -0.8158,-0.0129 -1.631497,-0.0384 -2.447401,-0.0386 -0.719695,-2.1e-4 -1.439127,0.0286 -2.158772,0.0373 -0.703072,0.009 -1.406316,0.002 -2.109319,0.0146 -1.600367,0.0295 -2.468237,0.1024 -4.055597,0.0919 -0.625943,-0.004 -1.251381,-0.0365 -1.877071,-0.0547 -1.212257,-0.0433 -2.184929,-0.0682 -3.387267,-0.14785 -1.539332,-0.10199 -3.073834,-0.26325 -4.610909,-0.38992 -0.500666,-0.0413 -1.002369,-0.0687 -1.503553,-0.10313 -1.394738,-0.10377 -2.78823,-0.21769 -4.180756,-0.34825 -0.18873,-0.0177 -1.801442,-0.18441 -2.068195,-0.19677 -0.23382,-0.0109 -0.468106,0.006 -0.702161,0.009 z"
       inkscape:export-filename="button.svg"
       inkscape:export-xdpi="96"
       inkscape:export-ydpi="96" />
    <path
       style="fill:#000000;stroke-width:0.264583"
       id="path43"
       d="m 89.88128,112.75886 c -0.01035,-0.0938 -0.02246,-0.30646 -0.07983,-0.38723 -0.236326,-0.33278 -0.815499,-0.25237 -1.16031,-0.22942 -0.868867,0.10174 -1.663485,0.46165 -2.430012,0.86256 -0.910709,0.47387 -1.703507,1.11554 -2.444618,1.81829 -1.574959,0.21229 -1.708618,1.82545 -2.62314,2.67638 -0.113321,0.10544 -0.26348,0.16775 -0.371475,0.27865 -0.260188,0.26716 -0.542287,0.84264 -0.725617,1.17803 -0.478615,0.66696 0.01405,-0.0761 -0.374145,0.71017 -0.04865,0.0985 -0.143227,0.17207 -0.181885,0.27493 -0.05472,0.14558 -0.06601,0.30403 -0.09326,0.45715 -0.07989,0.44891 -0.07433,0.49384 -0.115358,0.94521 -0.0372,0.30456 0.01487,0.61007 7.94e-4,0.91463 -0.0038,0.0818 -0.04295,0.16053 -0.03979,0.24233 0.01585,0.41077 0.171182,0.8196 0.289967,1.20811 0.196331,0.32958 0.391533,0.65462 0.624374,0.96027 0.07985,0.10483 0.150157,0.21911 0.24632,0.30919 0.05847,0.0548 0.146129,0.0688 0.209507,0.11784 0.111168,0.086 0.207309,0.18982 0.310962,0.28473 0.06961,0.0599 0.5607,0.49055 0.651973,0.53955 0.08957,0.0481 0.204015,0.0313 0.295418,0.0758 0.117742,0.0573 0.212648,0.15305 0.322133,0.22491 0.05913,0.0388 0.597165,0.36762 0.672478,0.41374 0.114155,0.0618 0.2173,0.15096 0.342458,0.18537 0.107887,0.0297 0.226568,-0.0238 0.335672,0.001 0.123203,0.028 0.229142,0.10682 0.346321,0.15407 0.369874,0.14916 0.749123,0.25506 1.134869,0.35282 1.427441,0.27729 0.643398,0.13359 3.701672,0.49271 0.120899,0.0142 0.246039,-0.0125 0.364932,0.0137 0.114681,0.0252 0.207946,0.12125 0.324196,0.13775 0.08636,0.0122 0.651225,-0.0808 0.738728,-0.0942 0.706308,-0.11436 1.383236,-0.35017 2.058003,-0.58054 0.221297,-0.0411 0.418338,-0.16819 0.637683,-0.21533 0.09827,-0.0211 0.203766,0.003 0.300532,-0.0245 0.136739,-0.0384 0.262586,-0.10868 0.390845,-0.1697 0.121724,-0.0579 0.618869,-0.32454 0.740307,-0.38926 0.332777,-0.19546 0.661024,-0.40949 0.94724,-0.6705 0.09662,-0.0881 0.182081,-0.18775 0.273712,-0.28105 0.09367,-0.0954 0.195143,-0.18349 0.282167,-0.28496 0.08465,-0.0987 0.154337,-0.20931 0.231505,-0.31398 0.08043,-0.10693 0.173453,-0.20546 0.241292,-0.32079 0.08129,-0.1382 0.141621,-0.2879 0.203706,-0.43573 0.288398,-0.68667 0.456488,-1.41851 0.630293,-2.14013 0.117739,-0.48291 0.192598,-0.97257 0.258963,-1.46433 0.02842,-0.21056 0.06855,-0.41974 0.08745,-0.63136 0.01286,-0.14406 0.01691,-0.81381 0.01849,-0.97042 0.05813,-0.5095 -0.05372,-0.9934 -0.138443,-1.48898 -0.03271,-0.19136 -0.04665,-0.38612 -0.0893,-0.57551 -0.04782,-0.21236 -0.195331,-0.55323 -0.276624,-0.75396 -0.171207,-0.29629 -0.274302,-0.62431 -0.424903,-0.93009 -0.05996,-0.12174 -0.135318,-0.23531 -0.205232,-0.35163 -0.106791,-0.17768 -0.200059,-0.36478 -0.324855,-0.53031 -0.04974,-0.066 -0.55822,-0.56241 -0.631473,-0.63449 -0.364995,-0.2668 -0.690137,-0.62961 -1.042583,-0.90445 -0.309708,-0.24152 -0.728551,-0.42281 -1.074346,-0.61436 -0.222025,-0.1391 -0.487428,-0.1942 -0.712459,-0.32703 -0.171209,-0.10106 -0.313589,-0.2494 -0.491958,-0.33721 -0.120359,-0.0592 -0.26025,-0.0652 -0.390533,-0.0972 -0.471067,-0.11561 -0.251997,-0.0742 -0.747236,-0.13196 -0.71968,-0.10609 -1.451105,-0.0439 -2.170565,0.0354 -0.301157,0.0214 -0.597266,0.0789 -0.887461,0.16082 -0.08526,0.0241 -0.174585,0.0393 -0.253695,0.0792 -0.203968,0.10282 -0.394076,0.23109 -0.591114,0.34664 0,0 -1.403942,1.00215 -1.403942,1.00215 v 0 c -0.115393,0.11912 -0.261864,0.21455 -0.346181,0.35737 -0.01974,0.0334 0.06234,0.0498 0.09979,0.06 0.24263,0.0659 0.50937,-0.0446 0.748231,-0.0607 0.71516,-0.0906 1.43289,-0.1705 2.154748,-0.11905 0.08912,0.011 0.646806,0.0782 0.726286,0.0941 0.119251,0.0238 0.230823,0.0933 0.352423,0.0942 0.08572,5.3e-4 0.155567,-0.0967 0.241011,-0.0897 0.084,0.007 0.646526,0.27171 0.71315,0.30213 0.121793,0.0558 0.2457,0.10717 0.365377,0.16737 0.152918,0.0769 0.586266,0.33334 0.734298,0.39524 0.08727,0.0365 0.190174,0.0293 0.274373,0.0724 0.126859,0.0649 0.512119,0.39764 0.613121,0.48203 0.431721,0.36735 0.223076,0.17238 0.624983,0.58592 0.06973,0.0612 0.16633,0.0892 0.230333,0.15634 0.09338,0.098 0.148688,0.22691 0.2345,0.33162 0.37709,0.46014 -2.64e-4,-0.17976 0.369086,0.53609 0.05301,0.11616 0.109953,0.2306 0.159023,0.34848 0.04971,0.11942 0.0817,0.24615 0.137144,0.36301 0.03428,0.0722 0.102073,0.12655 0.130561,0.20128 0.134303,0.35229 0.116779,0.74167 0.243504,1.09582 0.04209,1.07092 0.0028,-0.16572 0.0078,0.94708 5.29e-4,0.10579 0.0186,0.21139 0.01394,0.31708 -0.0065,0.14691 -0.03136,0.29243 -0.04732,0.43861 -0.07048,0.64561 -0.03303,0.34704 -0.132652,1.02047 -0.201506,0.97074 -0.453683,1.93778 -0.991938,2.7839 -0.0046,0.005 -0.476235,0.55707 -0.483683,0.5645 -0.09081,0.0905 -0.193762,0.16804 -0.291883,0.2506 -0.282223,0.23747 -0.577657,0.45165 -0.902525,0.62853 -0.41651,0.2286 -0.281824,0.1667 -0.732544,0.36309 -0.127513,0.0556 -0.260734,0.0987 -0.384315,0.16257 -0.159502,0.0824 -0.301816,0.19607 -0.463008,0.2751 -0.199871,0.098 -0.433554,0.11369 -0.631968,0.21585 -0.667414,0.21933 -1.338828,0.43462 -2.038117,0.52732 -0.117517,0.0139 -0.234659,0.0315 -0.352552,0.0418 -0.122134,0.0106 -0.247322,-0.005 -0.367194,0.0209 -0.147603,0.0316 -0.27827,0.12666 -0.427498,0.14944 -0.118134,0.018 -0.475699,-0.0457 -0.35728,-0.0297 3.909584,0.53047 3.284977,0.43834 2.223241,0.27671 -0.379026,-0.0788 -0.746665,-0.1653 -1.110435,-0.30035 -0.117409,-0.0436 -0.244388,-0.0707 -0.348565,-0.14024 -0.134175,-0.0895 -0.224152,-0.23446 -0.354777,-0.32909 -0.102986,-0.0746 -0.226375,-0.11596 -0.339561,-0.17394 -0.357955,-0.1946 -0.329253,-0.17094 -0.674555,-0.39121 -0.109763,-0.07 -0.229129,-0.12812 -0.326081,-0.21502 -0.132651,-0.1189 -0.228324,-0.27454 -0.357235,-0.39749 -0.199316,-0.1901 -0.456795,-0.31253 -0.646305,-0.51486 -0.526564,-0.49772 -0.05306,-0.0136 -0.576689,-0.68921 -0.07899,-0.1019 -0.174762,-0.18975 -0.257217,-0.28887 -0.29251,-0.35163 -0.559046,-0.7139 -0.709853,-1.152 -0.04121,-0.11798 -0.08973,-0.23365 -0.123619,-0.35393 -0.03718,-0.13196 -0.138745,-0.65745 -0.165873,-0.78759 -0.04244,-0.2036 -0.101142,-0.40428 -0.130021,-0.61024 -0.03247,-0.23158 -0.0058,-0.64888 0.0027,-0.87532 0.0389,-0.36827 0.04857,-0.54446 0.123169,-0.90871 0.03,-0.14649 0.08036,-0.28848 0.107188,-0.43558 0.02983,-0.16359 0.02373,-0.33323 0.06251,-0.49494 0.06848,-0.28554 0.271171,-0.52988 0.277191,-0.83618 0.190492,-0.35331 0.203075,-0.39781 0.436467,-0.73952 0.08248,-0.12075 0.183467,-0.22888 0.25881,-0.3542 0.08428,-0.14019 0.126082,-0.3044 0.218345,-0.43947 0.0907,-0.13279 0.216829,-0.23755 0.325242,-0.35632 -0.534681,0.52931 -1.069362,1.05863 -1.604042,1.58795 0.734533,-0.72727 1.505521,-1.41924 2.420908,-1.91509 0.749578,-0.40493 1.518918,-0.79511 2.364954,-0.94974 0.177271,-0.0231 0.470805,-0.0657 0.651936,-0.0728 0.08198,-0.003 0.163989,0.008 0.246036,0.007 0.06418,-2.6e-4 0.128599,-0.0173 0.192313,-0.01 0.094,0.0114 0.166449,0.0671 0.242755,0.11498 z" />
    <path
       style="fill:#000000;stroke-width:0.264583"
       id="path44"
       d="m 92.847828,126.40058 c -0.01635,0.041 -0.08742,0.21393 -0.08536,0.23934 0.0021,0.0261 0.04264,0.0304 0.06357,0.0462 0.08522,0.0641 0.169273,0.12958 0.254892,0.19319 0.04026,0.0345 0.0816,0.0678 0.120769,0.10351 0.09194,0.0839 0.178827,0.17313 0.2692,0.25869 0.141169,0.13363 0.282808,0.26678 0.425853,0.39841 0.03671,0.0329 0.07283,0.0664 0.110138,0.0986 0.04693,0.0405 0.0958,0.0787 0.142536,0.11935 0.164372,0.14309 0.126783,0.12192 0.295971,0.26118 0.309843,0.25504 -0.008,-0.0262 0.32277,0.27423 0.25658,0.23468 -0.0038,0.002 0.264557,0.22514 0.04463,0.0371 0.08683,0.077 0.131194,0.11446 0.03475,0.0293 0.07271,0.0548 0.106106,0.0857 0.04216,0.0389 0.08016,0.0821 0.120174,0.12327 0.05054,0.052 0.100999,0.10399 0.1515,0.15599 0.077,0.12356 0.165132,0.23499 0.265509,0.34007 0.04215,0.0441 0.08719,0.0854 0.12913,0.12977 0.104413,0.11038 0.204322,0.22494 0.307263,0.33669 0.01754,0.0219 0.197403,0.2462 0.228394,0.28731 0.0306,0.0406 0.05693,0.0844 0.08901,0.12384 0.05563,0.0684 0.122378,0.12773 0.173863,0.19929 0.01963,0.0273 0.02466,0.0625 0.03698,0.0938 0.0409,0.0546 0.08181,0.1091 0.122711,0.16366 0.05102,0.0656 0.09934,0.13343 0.153043,0.19688 0.03103,0.0367 0.06962,0.0665 0.100778,0.10302 0.03681,0.0432 0.207131,0.27174 0.244959,0.31907 0.06556,0.082 0.134887,0.16097 0.202239,0.24154 0.0663,0.0878 0.160288,0.21651 0.236062,0.30346 0.0191,0.0219 0.04099,0.0412 0.06149,0.0619 0.03847,0.0408 0.07871,0.0799 0.11542,0.12229 0.137334,0.17283 0.06728,0.0887 0.209973,0.25259 0.08231,0.11364 0.189322,0.18094 0.294809,0.27033 0.0438,0.0371 0.08263,0.0802 0.128458,0.11473 0.231712,0.17488 -0.107087,-0.1511 0.19548,0.16038 0.16693,0.1305 0.290549,0.30799 0.46039,0.4348 0.01662,0.0124 0.03719,0.0184 0.05578,0.0276 0.05445,0.0518 0.108892,0.10367 0.163338,0.1555 0.106558,0.0529 0.146121,0.17057 0.229896,0.24483 0.01741,0.0155 0.04719,0.01 0.06545,0.0243 0.04091,0.0324 0.07061,0.0769 0.108225,0.11301 0.386312,0.37101 -0.119433,-0.13722 0.240552,0.22813 0.0194,0.001 0.0417,-0.007 0.0582,0.003 0.0132,0.008 0.18041,0.17524 0.19604,0.19084 0.078,0.0778 0.15831,0.15251 0.23432,0.23216 0.0645,-0.0155 0.0621,0.1254 0.11864,0.12179 0.0217,-0.001 -0.004,-0.0606 0.0173,-0.0629 0.025,-0.003 0.0339,0.0372 0.0513,0.0555 0.0948,0.10015 0.0131,0.01 0.10144,0.10926 0.0861,0.11723 0.002,0.0204 0.0295,-0.0254 0.009,-0.0148 0.0198,0.0285 0.0301,0.0426 0.0239,0.0329 0.0478,0.0654 0.0702,0.0994 0.0264,0.0433 0.0489,0.0288 0.0996,0.0218 0.01,-10e-4 0.0245,0.004 0.0299,-0.004 0.0456,-0.0726 0.0778,-0.15276 0.11675,-0.22914 0,0 2.99669,-0.13152 2.99669,-0.13152 v 0 c 0.0429,-0.0864 0.088,-0.17182 0.1287,-0.2593 0.008,-0.0167 0.008,-0.0362 0.0165,-0.0526 0.0111,-0.0218 0.0342,-0.0373 0.0411,-0.0608 0.008,-0.0275 -0.0234,-0.0599 -0.0366,-0.0774 -0.0338,-0.0362 -0.0676,-0.0728 -0.10288,-0.10757 -0.0145,-0.0144 -0.0335,-0.0249 -0.0447,-0.0421 -0.036,-0.0555 -0.0583,-0.11919 -0.0953,-0.17402 -0.0141,-0.0209 -0.0375,-0.0338 -0.0563,-0.0507 -0.0379,-0.038 -0.0744,-0.0774 -0.11247,-0.11514 -0.0203,-0.0201 -0.046,-0.0354 -0.0624,-0.0588 -0.0405,-0.0578 -0.0643,-0.12638 -0.10667,-0.18275 -0.0384,-0.0511 -0.1156,-0.0635 -0.15051,-0.11852 -0.0957,-0.0679 -0.18802,-0.13984 -0.28193,-0.21014 -0.0303,-0.0227 -0.19854,-0.14905 -0.22256,-0.17385 -0.0603,-0.0623 -0.11173,-0.1326 -0.16759,-0.1989 -0.22839,-0.18937 -0.025,-0.0139 -0.23893,-0.21847 -0.0388,-0.0371 -0.0828,-0.0689 -0.11932,-0.1082 -0.061,-0.0657 -0.10969,-0.14241 -0.17269,-0.2062 -0.0806,-0.0816 -0.1965,-0.12433 -0.25749,-0.22804 -0.0283,-0.0286 -0.0575,-0.0563 -0.0849,-0.0857 -0.077,-0.0824 -0.19164,-0.21895 -0.28272,-0.29931 -0.0403,-0.0355 -0.0851,-0.0654 -0.1271,-0.0988 -0.0414,-0.0329 -0.0829,-0.0658 -0.12321,-0.1001 -0.0407,-0.0347 -0.0799,-0.0713 -0.11981,-0.10693 -0.22428,-0.18105 -0.0442,-0.0249 -0.29972,-0.2923 -0.0387,-0.0405 -0.0819,-0.0766 -0.12064,-0.11702 -0.0367,-0.0383 -0.0698,-0.0801 -0.10573,-0.11916 -0.1482,-0.16101 -0.12756,-0.13773 -0.26367,-0.26807 -0.0375,-0.0376 -0.0745,-0.0756 -0.1124,-0.11281 -0.0397,-0.039 -0.0822,-0.0752 -0.12047,-0.1156 -0.0386,-0.0408 -0.0729,-0.0853 -0.10965,-0.12771 -0.10994,-0.12681 -0.2171,-0.25832 -0.35188,-0.36026 -0.094,-0.10479 -0.186013,-0.21143 -0.282305,-0.31412 -0.0296,-0.0316 -0.252881,-0.25767 -0.278688,-0.28771 -0.05858,-0.0682 -0.109392,-0.14275 -0.166794,-0.21194 -0.02954,-0.0356 -0.06258,-0.0682 -0.09387,-0.10225 -0.207888,-0.23212 -0.0883,-0.10406 -0.363299,-0.37989 -0.03604,-0.0394 -0.06265,-0.0866 -0.09755,-0.12702 -0.05598,-0.0648 -0.117631,-0.12451 -0.174834,-0.18823 -0.0026,-0.003 -0.287181,-0.33089 -0.310065,-0.35726 -0.210915,-0.29163 0.02921,0.0353 -0.216257,-0.28112 -0.03819,-0.0492 -0.07289,-0.10109 -0.111329,-0.15012 -0.113662,-0.14498 -0.240564,-0.28086 -0.395872,-0.38209 -0.03149,-0.0285 -0.06242,-0.0575 -0.09448,-0.0854 -0.04457,-0.0387 -0.09168,-0.0744 -0.135361,-0.11407 -0.05744,-0.0522 -0.110585,-0.10896 -0.167846,-0.16134 -0.04448,-0.0407 -0.09152,-0.0785 -0.137247,-0.11774 -0.18528,-0.15914 -0.08676,-0.0849 -0.289769,-0.21907 -0.223132,-0.11895 -0.04111,-0.0159 -0.291256,-0.17931 -0.02665,-0.0174 -0.306899,-0.19119 -0.334595,-0.20994 -0.0276,-0.0187 -0.325824,-0.23917 -0.332896,-0.24438 -0.302363,-0.21341 -0.60501,-0.42988 -0.874879,-0.68409 -0.03474,-0.0342 -0.06788,-0.0701 -0.104212,-0.10257 -0.08194,-0.0733 -0.07593,-0.0574 -0.156043,-0.11341 -0.01799,-0.0126 -0.03069,-0.0435 -0.05237,-0.04 -0.08646,0.0139 -0.148617,0.10154 -0.238631,0.10987 z" />
  </g>
</svg>
