<?xml version="1.0" encoding="UTF-8" standalone="no"?>
<!-- Created with Inkscape (http://www.inkscape.org/) -->

<svg
   width="27.02066mm"
   height="23.041489mm"
   viewBox="0 0 27.02066 23.041489"
   version="1.1"
   id="svg1"
   sodipodi:docname="druid-elements.svg"
   xmlns:inkscape="http://www.inkscape.org/namespaces/inkscape"
   xmlns:sodipodi="http://sodipodi.sourceforge.net/DTD/sodipodi-0.dtd"
   xmlns="http://www.w3.org/2000/svg"
   xmlns:svg="http://www.w3.org/2000/svg">
  <sodipodi:namedview
     id="namedview1"
     pagecolor="#ffffff"
     bordercolor="#000000"
     borderopacity="0.25"
     inkscape:showpageshadow="2"
     inkscape:pageopacity="0.0"
     inkscape:pagecheckerboard="0"
     inkscape:deskcolor="#d1d1d1"
     inkscape:document-units="mm"
     inkscape:zoom="1.6390042"
     inkscape:cx="113.48354"
     inkscape:cy="646.12403"
     inkscape:window-width="2400"
     inkscape:window-height="1566"
     inkscape:window-x="2869"
     inkscape:window-y="483"
     inkscape:window-maximized="1"
     inkscape:current-layer="layer1" />
  <defs
     id="defs1" />
  <g
     inkscape:label="Layer 1"
     inkscape:groupmode="layer"
     id="layer1"
     transform="translate(-74.986437,-112.50123)">
    <path
       style="fill:#000000;stroke-width:0.264583"
       id="path20"
       d="m 38.1607,107.73633 c 0.235805,0.0338 0.470694,0.0748 0.707414,0.10139 0.262229,0.0295 1.872496,0.16182 2.057641,0.17818 1.438701,0.12715 2.877595,0.24965 4.316841,0.37081 2.145006,0.17008 4.287329,0.37128 6.433399,0.52739 0.539705,0.0393 1.078778,0.0897 1.619324,0.11489 0.640736,0.0298 1.282428,0.0333 1.923643,0.0499 2.089748,-0.0273 4.182647,-0.004 6.27131,-0.0932 0.757277,-0.0322 1.512861,-0.097 2.269834,-0.1356 1.497031,-0.0764 3.361015,-0.13316 4.841724,-0.18379 2.52671,0.0707 5.053822,-0.0541 7.580537,-0.0163 1.43781,0.0215 2.873724,0.1185 4.31142,0.14657 0.645528,0.0126 1.29128,0.008 1.936919,0.0113 0.59214,-1.1e-4 1.184349,0.009 1.776421,-2.7e-4 0.581255,-0.009 1.161933,-0.0426 1.743167,-0.0525 5.778704,-0.0986 -2.360194,0.0785 3.219606,0.006 3.073456,-0.0401 0.07048,-0.0932 3.039899,-0.011 1.319366,0.0113 2.63371,0.15757 3.951102,0.20525 0.407498,0.0147 0.815565,0.003 1.223248,0.0111 4.916881,0.0997 -2.465229,-0.0166 2.329598,0.0547 0.361743,0.002 0.723593,0.0153 1.085213,0.006 0.3486,-0.009 0.69583,-0.0497 1.04436,-0.061 0.31339,-0.0101 0.62717,0.004 0.94064,-0.003 0.92855,-0.02 1.85871,-0.0667 2.78636,-0.11139 0.31392,-0.0194 0.62859,-0.0289 0.94175,-0.0581 0.32915,-0.0306 0.65485,-0.0937 0.98427,-0.12124 1.084,-0.0907 2.18405,-0.0618 3.27107,-0.0832 0.62065,-0.008 1.21388,-0.20929 1.82423,-0.28763 0.50096,-0.0643 1.01984,-0.0694 1.52416,-0.0973 0.58749,-0.002 1.1629,-0.0799 1.73508,-0.20431 0.144,-0.0222 0.2977,-0.0771 0.44541,-0.0426 0.0319,0.007 0.1221,0.045 0.0897,0.04 -1.10282,-0.16754 -2.20295,-0.35229 -3.30443,-0.52843 0.0325,0.007 0.0691,0.004 0.0975,0.0211 0.30751,0.18594 0.38315,1.08869 0.43136,1.39171 0.16911,1.4235 0.12145,2.86382 0.0576,4.29266 -0.15016,2.17127 -0.29562,4.34336 -0.49102,6.51109 -0.2067,2.06478 -0.31959,4.13754 -0.51808,6.2031 -0.15199,1.53703 -0.25867,3.0772 -0.41726,4.61358 -0.15176,1.30228 -0.25718,2.60551 -0.32413,3.9147 -0.008,0.92624 -0.0228,1.85122 -0.0729,2.77628 -0.0145,0.63522 -0.089,1.26827 -0.16233,1.89914 -0.0473,0.35745 -0.0271,0.55556 -0.22663,0.85682 -0.11016,0.11139 -0.20643,0.20468 -0.34467,0.27814 -0.14125,0.0708 -0.28394,0.13291 -0.4361,0.17651 -0.0703,0.0202 -0.28216,0.0776 -0.21219,0.0562 1.07152,-0.32734 2.14463,-0.64941 3.21695,-0.97412 -1.30356,0.33759 -2.6618,0.37167 -3.99951,0.4455 -1.19484,0.12463 -2.39111,0.015 -3.5865,0.0124 -0.62219,-0.001 -1.24395,0.0339 -1.86607,0.0429 -1.84375,0.006 -3.67957,-0.17735 -5.522237,-0.18882 -2.462758,-0.0817 -4.927478,-0.0268 -7.391133,-0.0286 -3.1085,-0.10757 -6.216856,-0.1812 -9.327221,-0.18848 -3.050506,-0.01 -6.099598,0.0984 -9.148334,0.18771 -2.78656,0.0695 -5.569781,0.22016 -8.3547,0.33291 -2.733852,0.0794 -5.467226,0.15856 -8.199874,0.27267 -2.442998,0.12654 -4.887714,0.1938 -7.333578,0.22373 -2.043615,0.0566 -4.087926,0.0811 -6.131906,0.12425 -1.416458,0.0191 -2.833873,0.0524 -4.249666,-0.008 -0.720273,-0.0402 -1.440247,-0.085 -2.159376,-0.14223 -0.149831,0.007 -0.298561,-0.0337 -0.446934,-0.0386 0.05123,0.26172 0.116104,0.0124 0.177181,-0.0937 0.290893,-0.29271 0.463875,-0.62794 0.60407,-1.01224 0.237254,-0.77324 0.325604,-1.5833 0.417859,-2.38401 0.137575,-1.12004 0.286562,-2.23755 0.334587,-3.36549 0.08792,-1.70205 0.03655,-3.40264 -0.0736,-5.10173 -0.119796,-1.75767 -0.248502,-3.5149 -0.339381,-5.27435 -0.03664,-1.76009 -0.02455,-3.52053 -0.04846,-5.28086 -0.0131,-1.39856 0.06487,-2.79654 0.05136,-4.19474 -0.111136,-1.21657 -0.1,-2.43991 -0.104386,-3.66029 0.03256,-0.79744 -0.01672,-1.59621 0.04009,-2.39267 0.03864,-0.1699 0.0016,-0.44085 0.119332,-0.58668 0.02109,-0.0262 0.08668,0.0333 0.09067,0.0362 0.0704,-0.0298 0.149701,-0.13133 0.23128,-0.13297 0.0266,-5.3e-4 0.04523,0.0356 0.07182,0.0348 0.0057,-1.8e-4 0.188394,-0.0777 0.194945,-0.0804 0.02643,-0.0156 0.157231,-0.0954 0.190317,-0.10444 0.227156,-0.062 0.577729,-0.0294 0.810763,-0.0444 0.62752,-0.10109 1.331097,0.10476 1.948482,-0.007 0.08225,-0.0148 0.158445,-0.0533 0.237667,-0.0799 -0.113607,-0.0935 -0.227214,-0.18692 -0.340823,-0.28039 0,0 -1.77214,-0.62543 -1.77214,-0.62543 v 0 c -0.288689,-0.0599 -0.577379,-0.11985 -0.866066,-0.17977 -0.865452,-0.0467 -1.730343,-0.13249 -2.598197,-0.0788 -0.40911,0.0137 -0.781397,0.0296 -1.137674,0.24636 -0.236289,0.11259 -0.406953,0.29119 -0.582729,0.48346 -0.200716,0.44102 -0.272971,0.89768 -0.282771,1.38273 -0.02522,0.89045 -0.05454,1.78033 -0.07022,2.67094 -0.04078,1.25001 0.03594,2.49888 -0.01146,3.7485 0.02897,1.50799 -2.31e-4,3.01468 0.03631,4.52252 0.03169,1.94533 0.0861,3.89087 0.185148,5.83399 0.1212,1.75552 0.258294,3.50991 0.367951,5.26624 0.108053,1.68642 0.156223,3.37909 0.02196,5.066 -0.104815,1.12091 -0.230296,2.23909 -0.378725,3.3551 -0.112244,0.7772 -0.208764,1.56948 -0.508148,2.30184 -0.164907,0.33927 -0.38027,0.64486 -0.543467,0.98417 -0.1,0.27614 -0.112562,0.5257 0.06238,0.7782 0.170572,0.0321 0.350684,0.01 0.522457,0.0307 0.751012,0.0154 1.500233,0.0758 2.250956,0.0999 1.430234,0.0465 2.86022,0.0767 4.29093,0.0111 2.020798,-0.0449 4.04195,-0.0987 6.063351,-0.0922 2.462681,-0.0322 4.92393,-0.10801 7.38355,-0.23792 2.746753,-0.11178 5.493935,-0.20693 8.241479,-0.29668 2.771828,-0.0874 5.541701,-0.22621 8.313568,-0.31308 3.073138,-0.10537 6.146088,-0.23717 9.221621,-0.24015 3.080996,0.008 6.159251,0.11502 9.237885,0.22938 2.445305,0.0758 4.886952,0.0559 7.332755,0.0229 1.82931,0.11851 3.663391,0.22791 5.496782,0.22356 0.35999,-0.007 1.52621,-0.0231 1.89209,-0.0483 2.98446,-0.20509 -0.89329,-0.004 1.86384,-0.18126 0.28941,-0.0186 0.57965,-0.0206 0.86943,-0.0322 0.30244,-0.0121 0.60481,-0.0259 0.90722,-0.0388 1.32094,-0.0697 2.65638,-0.10353 3.95888,-0.34705 1.26361,-0.37385 2.52912,-0.74132 3.79083,-1.12154 0.17814,-0.0537 0.3555,-0.14731 0.50974,-0.25137 0.0812,-0.0548 0.0914,-0.0696 0.15417,-0.13151 0.12013,-0.11329 0.23723,-0.21866 0.29408,-0.3785 0.11081,-0.30489 0.13078,-0.63784 0.1676,-0.95784 0.0529,-0.59798 0.0917,-1.19742 0.1576,-1.79404 0.026,-0.90019 0.0156,-1.80074 0.0496,-2.70075 0.0345,-1.23856 0.14093,-2.47512 0.31887,-3.70161 0.15326,-1.42696 0.30184,-2.85471 0.41818,-4.2852 0.15153,-1.90274 0.28244,-3.80693 0.4352,-5.70958 0.15805,-2.12282 0.30317,-4.24614 0.40675,-6.37247 0.0677,-1.45243 0.1167,-2.90724 -0.0579,-4.35506 -0.068,-0.59571 -0.10319,-1.24945 -0.42429,-1.77288 -2.15201,-0.3717 -2.60976,-0.86259 -4.04288,-0.48917 -0.54815,0.11097 -1.10498,0.14292 -1.66262,0.17345 -0.49731,0.0337 -1.01095,0.10546 -1.50912,0.0993 -0.53362,-0.007 -1.05583,-0.16111 -1.58957,-0.17004 -0.78012,0.009 -1.55934,0.0266 -2.33887,0.0603 -0.30569,0.0132 -0.61089,0.0399 -0.91682,0.0451 -0.30968,0.005 -0.61941,-0.0203 -0.92906,-0.0139 -0.31458,0.007 -0.6283,0.0353 -0.94245,0.053 -0.497,0.022 -1.36235,0.0648 -1.85936,0.0689 -0.29274,0.002 -0.58541,-0.0122 -0.878157,-0.0128 -0.30915,-8e-4 -0.61836,0.0168 -0.927409,0.009 -0.318831,-0.008 -0.636294,-0.048 -0.955096,-0.0573 -0.356957,-0.0104 -0.714214,-10e-4 -1.071322,-0.002 -0.612693,-0.01 -1.709851,-0.0189 -2.315763,-0.0613 -0.37919,-0.0265 -0.755232,-0.0887 -1.134192,-0.11834 -1.304221,-0.10202 -2.615244,-0.1211 -3.921807,-0.17299 -0.495091,-0.0131 -0.99018,-0.0261 -1.485271,-0.0392 -0.472273,-0.0313 -0.943742,-0.0791 -1.416822,-0.094 -0.678397,-0.0213 -2.537214,0.0192 -3.198492,0.0132 -0.552334,-0.005 -1.104358,-0.0279 -1.656525,-0.0423 -0.564774,-0.0148 -1.129533,-0.0301 -1.694299,-0.0452 -0.609655,-0.0239 -1.219105,-0.0538 -1.828967,-0.0717 -1.416081,-0.0417 -2.83346,-0.0341 -4.249229,-0.0853 -2.424451,-0.0877 -4.84678,-0.31436 -7.275878,-0.21778 -0.8158,-0.0129 -1.631497,-0.0384 -2.447401,-0.0386 -0.719695,-2.1e-4 -1.439127,0.0286 -2.158772,0.0373 -0.703072,0.009 -1.406316,0.002 -2.109319,0.0146 -1.600367,0.0295 -2.468237,0.1024 -4.055597,0.0919 -0.625943,-0.004 -1.251381,-0.0365 -1.877071,-0.0547 -1.212257,-0.0433 -2.184929,-0.0682 -3.387267,-0.14785 -1.539332,-0.10199 -3.073834,-0.26325 -4.610909,-0.38992 -0.500666,-0.0413 -1.002369,-0.0687 -1.503553,-0.10313 -1.394738,-0.10377 -2.78823,-0.21769 -4.180756,-0.34825 -0.18873,-0.0177 -1.801442,-0.18441 -2.068195,-0.19677 -0.23382,-0.0109 -0.468106,0.006 -0.702161,0.009 z"
       inkscape:export-filename="button.svg"
       inkscape:export-xdpi="96"
       inkscape:export-ydpi="96" />
    <path
       style="fill:#000000;stroke-width:0.264583"
       id="path27"
       d="m 77.231615,132.95217 c 0.06979,-0.008 0.139184,-0.0277 0.209367,-0.0244 1.08943,0.0512 -0.653222,0.0342 0.544058,0.13707 0.27175,0.0233 0.787953,-0.0963 1.024024,-0.12658 0.213866,-0.0275 0.429321,-0.0407 0.64398,-0.061 0.657035,-0.038 1.309426,-0.11453 1.962629,-0.19031 0.208844,-0.0242 0.419664,-0.033 0.627208,-0.0666 0.0978,-0.0158 1.232067,-0.2689 1.321427,-0.28872 0.939178,-0.20143 1.906196,-0.33845 2.780173,-0.76165 0.174376,-0.0844 0.339566,-0.18666 0.509349,-0.27999 0.165466,-0.10489 0.742548,-0.46292 0.899182,-0.59255 0.440594,-0.36466 0.80704,-0.85226 1.09039,-1.34579 0.103989,-0.18113 0.188994,-0.3725 0.283493,-0.55876 0.07969,-0.18471 0.168473,-0.36575 0.23908,-0.55412 0.134059,-0.35767 0.295272,-0.93064 0.395306,-1.29834 0.178835,-0.65735 0.335706,-1.32029 0.492863,-1.98304 0.291079,-1.098 0.539898,-2.23784 1.09215,-3.24319 0.10731,-0.19535 0.236299,-0.37798 0.354449,-0.56697 0.664268,-0.92956 1.549072,-1.66497 2.535518,-2.2332 0.214858,-0.12377 0.439253,-0.23019 0.658881,-0.34529 1.280314,-0.63447 2.669553,-0.96903 4.064138,-1.23728 0.629068,-0.11647 1.26401,-0.19599 1.89968,-0.26569 0.11053,-0.0151 0.22491,-0.006 0.32602,-0.0583 0.85198,-0.45799 1.20188,-2.5395 0.26221,-2.83975 -0.20872,-0.048 -0.41123,-0.1157 -0.61259,-0.18824 -0.72929,-0.31325 -1.471709,-0.58867 -2.230394,-0.82167 -0.512987,-0.16427 -1.025223,-0.33101 -1.539139,-0.49237 -0.107413,-0.0337 -0.215794,-0.0644 -0.322794,-0.0994 -0.04574,-0.015 -0.125143,-0.0975 -0.135274,-0.0505 -0.197488,0.91712 -0.301352,1.85194 -0.452027,2.77791 0.869304,0.32122 1.726147,0.67406 2.55932,1.08091 0.362669,0.21761 1.155144,0.57777 1.223412,1.07042 0.0075,0.0539 -0.008,0.10855 -0.01204,0.16282 0.537376,-4.68076 0.631056,-2.84835 0.09851,-2.05734 -0.181609,0.26977 -0.389736,0.46882 -0.634176,0.67967 -0.392163,0.32937 -0.855128,0.54024 -1.306002,0.77125 -0.201168,0.42817 -0.103918,0.1657 -0.227428,0.80832 0,0 -0.07485,1.41776 -0.07485,1.41776 v 0 c 0.02466,0.47765 -0.03732,0.29933 0.0817,0.56042 0.472284,-0.25825 0.938006,-0.53753 1.369296,-0.85941 0.287223,-0.23201 0.469468,-0.39902 0.706979,-0.67973 0.02947,-0.0348 0.285051,-0.3357 0.296831,-0.40303 0.16715,-0.95551 0.27382,-1.92063 0.41073,-2.88094 -0.0246,-0.0572 -0.042,-0.11815 -0.0738,-0.17171 -0.28914,-0.4865 -0.954003,-0.69682 -1.419588,-0.95042 -0.73252,-0.33527 -0.309914,-0.13915 -1.061331,-0.49434 -0.492194,-0.23265 -0.478271,-0.21175 -0.933222,-0.47729 -0.09251,-0.054 -0.18718,-0.10563 -0.272259,-0.17071 -0.04469,-0.0342 -0.07589,-0.0831 -0.113829,-0.12463 -0.173125,0.89395 -0.372613,1.78319 -0.519372,2.68184 -0.0055,0.0337 0.05539,-0.0493 0.08949,-0.0496 0.107678,-0.001 0.21399,0.0257 0.319813,0.0456 0.521644,0.0982 1.029149,0.25878 1.53118,0.42822 0.320265,0.12364 0.685784,0.25919 1.002356,0.40048 0.402399,0.17959 0.787162,0.39581 1.184772,0.58525 0.20076,0.0938 0.40494,0.17743 0.61534,0.24725 0.92503,0.38187 0.79257,-3.61566 0.35277,-2.6961 -0.001,0.002 -0.0197,0.0325 -0.0193,0.0351 0.001,0.008 0.0182,0.0131 0.0139,0.0201 -0.0283,0.0466 -0.16494,0.0212 -0.18961,0.0652 -0.63394,0.18396 -1.283632,0.30561 -1.924744,0.46098 -0.917334,0.21939 -1.832612,0.45196 -2.730754,0.74144 -0.247639,0.0798 -0.497162,0.15517 -0.739357,0.25024 -0.226856,0.089 -0.444053,0.20098 -0.66608,0.30146 -0.414465,0.21154 -0.93708,0.46503 -1.329346,0.71802 -0.19711,0.12713 -0.381156,0.27353 -0.568212,0.41503 -0.189224,0.14315 -0.382748,0.28159 -0.560477,0.43878 -0.396155,0.35037 -0.532265,0.55583 -0.862089,0.96653 -0.128672,0.18556 -0.270156,0.36286 -0.386014,0.55667 -0.596926,0.99857 -0.839163,2.16324 -1.147625,3.26939 -0.314476,1.28405 -0.606819,2.57771 -1.074436,3.81742 -0.08511,0.18883 -0.159676,0.38278 -0.255315,0.56651 -0.31863,0.6121 -0.885719,1.38038 -1.426683,1.81102 -0.140357,0.11173 -0.300816,0.19556 -0.451223,0.29334 -0.667983,0.39435 -1.34796,0.75169 -2.057578,1.06595 -0.197807,0.0876 -0.393292,0.18123 -0.595701,0.2576 -0.203433,0.0768 -0.413647,0.13419 -0.620472,0.20129 -1.159679,0.30531 -0.167687,0.0578 -1.310034,0.30541 -0.211325,0.0458 -0.419862,0.10432 -0.63197,0.14635 -0.653886,0.12954 -1.31843,0.20954 -1.973996,0.32998 -0.215879,0.0303 -0.430903,0.0674 -0.647639,0.0908 -0.235082,0.0254 -0.782299,0.0294 -1.03406,0.12166 -0.267174,0.0979 -0.539602,0.41408 -0.835105,0.48999 z" />
    <path
       style="fill:#000000;stroke-width:0.264583"
       id="path29"
       d="m 74.986435,118.1971 c 0.36767,-0.12608 0.767011,-0.16768 1.154829,-0.15281 0.173734,0.007 0.345617,0.0396 0.519142,0.0504 0.181925,0.0113 0.364397,0.0106 0.546597,0.0159 1.195986,0.10386 2.368635,0.40307 3.470111,0.8813 0.223615,0.0971 0.439854,0.21035 0.659781,0.31553 0.794224,0.45457 1.498674,1.04225 2.103178,1.72787 0.136324,0.15461 0.272151,0.31052 0.392483,0.47788 0.138922,0.19322 0.255929,0.40129 0.383895,0.60194 0.131003,0.22625 0.266001,0.45023 0.393006,0.67875 0.177234,0.31889 0.528498,1.00307 0.703279,1.32918 0.315865,0.58935 0.640228,1.17454 0.962043,1.76067 0.451964,0.9697 1.042496,1.86397 1.584841,2.78357 0.07078,0.11109 0.133869,0.22747 0.212328,0.33327 0.08237,0.11107 0.183798,0.2069 0.269021,0.3158 0.06981,0.0892 0.1299,0.18562 0.19559,0.2779 0.161015,0.22619 0.326023,0.44869 0.495718,0.6684 0.375976,0.46548 0.86033,0.82037 1.304894,1.21419 0.384931,0.29423 0.785188,0.59224 1.252188,0.74334 0.09778,0.0316 0.199059,0.0513 0.29859,0.0769 0.698574,0.1823 1.422122,0.21169 2.14041,0.2168 0.763284,-0.0413 1.527353,-0.0262 2.291215,-0.0224 0.584378,-0.0114 1.168339,-0.0212 1.752643,0.004 0.180887,0.0252 0.365437,-8e-4 0.53577,0.0644 0.07414,0.0367 0.152109,0.001 0.230085,0.002 0.197268,7.9e-4 -0.06381,0.0115 0.146531,5.3e-4 0.08549,0.0265 0.152474,-0.0504 0.226801,-0.0618 0.02257,-0.003 0.04426,0.0135 0.0671,0.0139 0.01953,2.6e-4 0.05308,0.007 0.05742,-0.0117 0.04337,-0.1905 0.05169,-0.38731 0.07753,-0.58097 0,0 0.09806,-1.66395 0.09806,-1.66395 v 0 c -2.65e-4,-0.19436 0.01415,-0.38929 -7.94e-4,-0.58308 -0.0013,-0.0162 -0.02947,-0.0151 -0.04558,-0.0174 -0.02,-0.003 -0.04166,0.009 -0.06059,0.002 -0.0773,-0.029 -0.13304,-0.11558 -0.228872,-0.10558 -0.112604,-0.0224 -0.212281,-0.0367 -0.312941,-0.0914 -0.06292,-0.0132 -0.115298,-0.005 -0.179626,-0.008 -0.147338,-0.006 -0.293426,-0.009 -0.440603,0.012 -0.589372,0.0253 -1.178906,0.0153 -1.76839,0.0303 -0.761817,0.0241 -1.524288,0.0412 -2.286542,0.0386 -0.693103,-0.002 -1.386192,-0.0252 -2.053961,-0.23401 -0.529383,-0.18117 -1.022617,-0.4145 -1.444379,-0.79206 -0.464836,-0.34212 -0.893881,-0.72963 -1.255538,-1.18148 -0.16442,-0.20965 -0.329856,-0.41868 -0.489915,-0.63171 -0.06614,-0.088 -0.138687,-0.17182 -0.19631,-0.26563 -0.05545,-0.0903 -0.08808,-0.19313 -0.141621,-0.28456 -0.06403,-0.10935 -0.140285,-0.21108 -0.210426,-0.31662 -0.576765,-0.86689 -1.084556,-1.77244 -1.613958,-2.66841 -0.70113,-1.21898 -1.415249,-2.43064 -2.120395,-3.64718 -0.139957,-0.19369 -0.269018,-0.39574 -0.41987,-0.58107 -0.127765,-0.15697 -0.271933,-0.30002 -0.414345,-0.44383 -0.648153,-0.65454 -1.372963,-1.22798 -2.207644,-1.62745 -0.522134,-0.22996 -0.852583,-0.39106 -1.399278,-0.56771 -0.917181,-0.29636 -1.884003,-0.42528 -2.836627,-0.54246 -0.83652,-0.0211 -0.268071,-0.0282 -1.090187,0.0352 -0.410974,0.0317 -0.843539,0.0262 -1.234299,0.17197 z" />
    <path
       style="fill:#000000;stroke-width:0.264583"
       id="path30"
       d="m 96.46623,126.16381 c -0.149537,-0.20723 -0.365305,-0.55633 -0.675605,-0.45339 -0.05359,0.0178 -0.143251,0.0307 -0.145243,0.0871 -0.03446,0.97541 0.02582,1.95186 0.03874,2.9278 0.361821,0.32881 0.788464,0.56165 1.205714,0.80871 0.838798,0.49667 -0.05308,-5.2e-4 0.802976,0.46757 0.370703,0.21628 0.764982,0.39457 1.13152,0.61814 0.299649,0.18276 0.584589,0.39567 0.878755,0.58763 0.214829,0.14787 0.429443,0.29696 0.636513,0.45568 0.12574,0.0964 0.22871,0.15649 0.30036,0.29625 -0.3094,0.97824 0.0162,-0.0393 -0.0345,-2.93871 -5.3e-4,-0.0282 -0.008,0.0586 -0.0264,0.0803 -0.0491,0.059 -0.31511,0.18917 -0.37943,0.22699 -0.14402,0.0707 -0.265553,0.17835 -0.405271,0.25579 -0.07283,0.0404 -0.155752,0.0614 -0.226621,0.10508 -0.08397,0.0518 -0.153609,0.1242 -0.235146,0.17974 -0.635704,0.43306 0.172741,-0.17724 -0.522962,0.36277 -0.568341,0.37021 -1.138743,0.73715 -1.709227,1.10402 -0.184007,0.13812 -0.403021,0.21158 -0.604189,0.31873 -0.245277,0.13063 0.03723,-0.006 -0.161854,0.0883 -0.03705,0.0103 -0.053,0.0586 -0.08863,0.0719 -0.0089,0.003 -0.03293,-0.0131 -0.02794,-0.005 0.01275,0.0206 0.0466,0.025 0.05451,0.0479 0.0039,0.0114 -0.02511,0.006 -0.03282,0.0148 -0.01167,0.0139 -0.01439,0.0333 -0.02159,0.05 -0.148971,0.15141 -0.03079,0.0341 -0.01032,0.15057 0.0011,0.006 -0.130447,0.13308 -0.146894,0.14719 -0.11336,0.12257 -0.259249,0.13088 -0.377166,0.25167 -0.09466,0.10962 -0.08557,0.19788 -0.0982,0.32953 0,0 -0.121452,2.74184 -0.121452,2.74184 v 0 c 0.01847,-0.003 0.128437,0.009 0.08215,-0.0294 -0.0019,-0.10992 0.203311,-0.20527 0.287623,-0.22735 0.0149,-0.01 0.203144,-0.1518 0.206184,-0.15314 0.124124,-0.0547 0.162746,-0.0156 0.234911,-0.12064 0.01527,-0.0102 0.03496,-0.0159 0.04582,-0.0307 0.01127,-0.0154 -1.6e-5,-0.0455 0.01669,-0.0547 0.02918,-0.016 0.06906,0.005 0.09943,-0.009 0.0098,-0.004 0.05369,-0.11939 0.09123,-0.0987 0.213903,-0.22015 0.505789,-0.37266 0.745226,-0.56196 0.558718,-0.38958 1.110975,-0.78853 1.701967,-1.12938 0.516387,-0.26427 0.06048,-0.0123 0.533167,-0.32723 0.07549,-0.0503 0.160221,-0.0863 0.233502,-0.13981 0.07618,-0.0556 0.137033,-0.13032 0.213083,-0.18608 0.06934,-0.0508 0.310709,-0.17662 0.391399,-0.21973 0.1187,-0.0598 0.25951,-0.15116 0.39279,-0.17714 0.0366,-0.007 0.1097,0.0352 0.1119,-0.002 0.17807,-3.0164 0.89349,-2.46809 0.004,-3.11578 -0.35316,-0.10177 -0.66258,-0.41222 -0.994262,-0.56599 -0.293777,-0.17611 -0.595839,-0.32832 -0.895263,-0.49366 -0.378597,-0.20907 -0.745241,-0.44093 -1.136086,-0.62812 -0.398119,-0.21667 -0.78277,-0.41229 -1.150128,-0.68048 -0.156268,-0.11409 -0.403116,-0.29898 -0.533167,-0.45602 -0.04788,-0.0578 -0.07711,-0.12883 -0.115663,-0.19324 -0.01916,0.88332 -0.01603,1.76742 -0.05744,2.64998 -0.0019,0.0414 -0.06254,-0.0664 -0.0618,-0.10777 7.94e-4,-0.0374 0.03749,-0.0664 0.06537,-0.0914 0.0492,-0.0441 0.112567,-0.0702 0.162774,-0.11318 0.159094,-0.13618 0.194011,-0.20307 0.317442,-0.36987 z" />
  </g>
</svg>
